<svg width="446" height="596" viewBox="0 0 446 596" fill="none" xmlns="http://www.w3.org/2000/svg">
<path d="M59.1953 451.1C52.6785 443.497 45.2731 454.26 41.8172 458.703C39.4474 461.764 31.2521 469.762 32.1407 474.008C32.4369 475.489 32.6344 475.39 34.1155 475.785C35.5966 476.18 37.1764 475.982 38.5588 475.587C46.2605 473.711 52.3823 469.367 55.8382 462.751C55.9369 464.627 56.0357 466.503 56.0357 468.281C56.0357 468.676 56.5294 468.972 56.8256 468.676C57.5168 468.182 58.208 467.688 58.8991 467.195C61.4664 465.318 60.3802 462.554 61.0714 459.493C61.7626 456.531 61.1701 453.371 59.1953 451.1Z" fill="#641E0F"/>
<path d="M37.8677 390.079L37.7689 386.524C44.8782 387.314 51.9874 388.005 59.0967 388.696L58.8005 395.115L57.8131 450.804C57.8131 451.001 57.8131 451.001 57.8131 450.902C61.1702 456.827 48.8278 465.713 44.6807 467.096C42.6072 467.787 39.0526 468.182 39.4475 464.726C39.645 463.245 40.6324 462.06 41.521 460.875C42.8047 459.098 46.458 453.766 46.1618 451.692C46.0631 451.001 37.8677 390.079 37.8677 390.079Z" fill="#FF8358"/>
<path d="M115.082 436.98C105.603 433.722 104.714 446.755 103.924 452.285C103.43 456.135 100.369 467.194 103.233 470.354C104.22 471.44 104.418 471.341 105.8 470.946C107.281 470.551 108.466 469.564 109.552 468.577C115.279 463.047 118.34 456.234 118.044 448.73C119.13 450.211 120.019 451.791 121.006 453.469C121.204 453.864 121.796 453.766 121.895 453.469C122.29 452.68 122.685 451.89 122.981 451.1C124.264 448.138 121.895 446.36 120.907 443.398C120.117 440.436 118.044 437.967 115.082 436.98Z" fill="#304483"/>
<path d="M66.0082 395.016L64.1321 391.955C70.6489 388.993 77.1657 386.031 83.5838 383.068L86.546 388.795L113.699 437.375C113.798 437.573 113.798 437.474 113.798 437.375C119.722 440.732 113.502 454.655 110.638 457.913C109.256 459.493 106.294 461.764 104.912 458.505C104.319 457.123 104.615 455.642 104.813 454.161C105.01 451.989 105.504 445.57 104.22 443.892C103.825 443.497 66.0082 395.016 66.0082 395.016Z" fill="#FF8358"/>
<path d="M44.9769 284.823L41.2248 290.549C38.2626 295.091 36.6827 300.325 36.7815 305.755L37.7689 392.942C37.7689 392.942 73.6113 410.419 92.1743 390.573L93.063 325.602C93.063 325.602 97.5063 294.005 84.1764 286.699L44.9769 284.823Z" fill="#175E65"/>
<path d="M55.1464 245.327C59.3922 244.241 61.9595 239.995 61.1696 235.749C61.1696 235.552 61.0708 235.354 60.9721 235.157L41.0267 160.016L38.8544 151.821L36.4847 142.737L31.1527 141.749C28.9805 141.354 27.3019 143.23 27.6969 145.501L44.9763 238.711C45.8649 243.55 50.4069 246.61 55.1464 245.327Z" fill="#FF8358"/>
<path d="M37.2749 152.117C42.2119 151.228 45.4703 146.39 44.5816 141.453C43.693 136.516 38.8547 133.257 33.9177 134.146C28.9808 135.035 25.7224 139.873 26.611 144.81C27.5984 149.747 32.3379 153.104 37.2749 152.117Z" fill="#FF8358"/>
<path d="M43.7915 239.007L29.2768 160.707L31.1528 161.299C33.5226 161.991 35.8923 161.793 38.3608 160.51C39.052 160.115 39.7432 159.72 40.3356 159.226L41.7179 158.041L62.0583 234.663C62.0583 234.762 62.0583 234.86 62.157 234.959C62.2558 235.157 62.2558 235.354 62.3545 235.552C63.1444 239.797 61.0709 243.944 57.4175 245.82C56.8251 246.117 56.2327 246.413 55.5415 246.512C52.9742 247.203 50.407 246.808 48.2348 245.425C45.865 243.944 44.2852 241.673 43.7915 239.007Z" fill="#D4F7FA"/>
<path d="M55.3442 191.514C56.7266 188.255 58.5039 185.194 60.8736 182.627C64.0333 179.369 68.3778 177.098 72.8211 177.295C77.3631 177.394 81.8064 180.356 83.09 184.602C88.9157 184.503 94.5438 188.156 96.8148 193.291C98.3947 196.747 98.4934 200.696 100.073 204.152C103.924 212.545 114.588 207.707 121.302 211.558C123.771 212.94 125.647 215.211 127.128 217.68C130.979 224.196 131.67 232.392 129.103 239.501C127.72 243.451 125.252 247.894 127.325 251.547C129.004 254.608 132.855 255.497 135.817 257.472C141.05 260.928 142.827 268.728 139.668 274.159C138.582 276.035 137.101 277.614 136.212 279.589C134.435 283.835 136.409 289.364 133.447 292.919C130.682 296.178 125.351 295.486 121.796 293.117C118.241 290.747 115.575 287.192 112.021 284.921C104.911 280.28 92.4703 285.217 87.9283 276.528C87.5333 275.738 87.2371 274.949 86.9409 274.06C82.1026 267.839 79.9304 259.348 82.3989 251.843C82.4976 251.547 82.5963 251.152 82.6951 250.856C80.6215 248.684 77.4619 247.4 73.3148 245.425C67.2917 242.661 62.9472 238.316 63.4409 232.589C62.7497 231.799 61.861 231.108 61.0711 230.417C50.901 221.827 49.7161 206.917 54.0606 194.278C54.5543 193.39 54.9493 192.501 55.3442 191.514Z" fill="#641E0F"/>
<path d="M47.05 202.474C46.5563 213.631 54.3567 223.801 65.7118 225.875C70.6488 226.764 75.487 226.072 79.7328 223.999C80.8189 223.505 81.9051 222.814 82.8925 222.123C87.0395 219.259 90.1992 215.014 91.6803 209.879C91.8778 209.089 92.0752 208.398 92.2727 207.608C92.5689 205.831 92.7664 204.152 92.6677 202.474C92.3715 195.463 88.8168 188.946 83.1887 184.997C82.1025 184.207 80.8189 183.417 79.5353 182.825C77.8567 182.035 75.9807 181.442 74.1046 181.146C73.611 181.047 73.1173 180.949 72.6236 180.949C68.5752 180.455 64.7244 181.047 61.1698 182.528C54.258 185.392 48.9261 191.514 47.5437 199.413C47.445 199.907 47.3462 200.301 47.3462 200.795C47.05 201.289 47.05 201.881 47.05 202.474Z" fill="#641E0F"/>
<path d="M92.1739 247.499L89.4092 257.768L85.2621 288.97C84.6697 291.043 83.2873 292.82 81.51 293.709C76.573 296.178 64.6256 297.362 50.3083 291.339C48.1361 290.451 44.0877 288.377 43.594 285.81L39.1508 262.705L39.052 262.211C38.3608 258.657 38.8545 254.904 40.5331 251.745L45.7663 241.772V236.44C45.7663 230.121 51.3945 225.579 57.0226 227.356L58.9974 228.047L62.0583 229.133L75.6844 233.774L79.634 235.157L87.4344 237.823C91.1865 239.205 93.26 243.451 92.1739 247.499Z" fill="#A2DEE4"/>
<path d="M92.1739 247.499L89.4092 257.767C88.0268 259.446 86.6445 261.125 85.2621 262.902C82.3987 266.457 79.3377 270.209 75.2894 272.085C68.5751 275.244 60.8735 272.677 54.0604 269.814C49.8146 268.036 45.6676 266.16 41.6193 264.186C40.8293 263.791 39.9407 263.396 39.1508 262.902L39.052 262.408C38.3608 258.854 38.8545 255.101 40.5331 251.942L45.7663 241.969V236.637C45.7663 230.318 51.3945 225.776 57.0226 227.553L58.9974 228.244L62.0583 229.33L75.6844 233.774L79.634 235.156L87.4344 237.822C91.1865 239.204 93.26 243.45 92.1739 247.499Z" fill="#D4F7FA"/>
<path d="M79.7329 235.157C77.7581 238.316 75.1909 241.081 72.3274 243.55C70.2539 245.426 67.9829 247.203 65.3169 248.092C62.651 248.98 59.4913 248.783 57.319 247.005C55.5417 245.524 54.6531 243.253 54.5543 240.982C54.4556 238.711 55.048 236.44 55.8379 234.367C56.6279 232.096 57.714 230.022 58.8989 227.949L61.9598 229.035L75.6846 233.774L79.7329 235.157Z" fill="#FF8358"/>
<path d="M34.7084 258.854L34.9053 259.149H34.8068C34.8068 259.051 34.7084 258.952 34.7084 258.854Z" fill="#DCEFFE"/>
<path d="M60.8736 218.371L60.9724 220.049L61.4661 235.552L77.9556 236.835L77.7581 234.564L76.277 213.335L60.8736 218.371Z" fill="#FF8358"/>
<path d="M60.8742 218.371L60.9729 220.05L77.7587 234.564L76.2776 213.335L60.8742 218.371Z" fill="#FF8358"/>
<path d="M46.1621 201.585C45.5697 204.646 47.6432 207.608 50.7042 208.201C53.7651 208.793 56.7273 206.72 57.3197 203.659C57.9121 200.598 55.8386 197.635 52.7777 197.043C49.618 196.549 46.7546 198.524 46.1621 201.585Z" fill="#FF8358"/>
<path d="M51.4937 204.745C51 213.73 57.3194 221.925 66.4034 223.604C70.353 224.295 74.3025 223.703 77.6597 222.123C78.5483 221.728 79.437 221.234 80.2269 220.642C84.0778 217.976 86.8425 213.928 87.7311 208.991C88.0273 207.608 88.1261 206.226 88.0273 204.843C87.8299 199.215 84.8677 193.982 80.4244 190.822C79.5357 190.131 78.5484 189.638 77.4622 189.144C76.0799 188.551 74.5988 188.058 73.1177 187.762C72.7227 187.663 72.3278 187.663 71.9328 187.564C68.6744 187.169 65.5147 187.663 62.75 188.848C57.2206 191.119 52.9748 196.056 51.7899 202.474C51.5925 203.066 51.4937 203.955 51.4937 204.745Z" fill="#FF8358"/>
<path d="M74.8951 197.833C75.2901 197.537 75.7838 197.241 76.3762 197.142H76.475C76.5737 197.142 76.6724 197.142 76.7712 197.142C76.8699 197.142 77.0674 197.142 77.1661 197.142H77.2649C77.4624 197.142 77.6598 197.241 77.7586 197.241C78.6472 197.537 79.3384 198.228 79.7334 199.117C79.8321 199.314 79.8321 199.512 79.9308 199.808C80.0296 200.203 79.9308 200.696 79.8321 201.091C79.7334 201.486 79.2397 201.783 78.8447 201.585C78.6472 201.486 78.4498 201.388 78.351 201.19C78.2523 200.993 78.2523 200.795 78.2523 200.598C78.351 200.4 78.351 200.203 78.351 200.005C78.351 199.907 78.351 199.808 78.2523 199.709C78.1535 199.314 77.7586 198.919 77.3636 198.82C77.2649 198.82 77.2649 198.82 77.1661 198.722C77.0674 198.722 76.8699 198.722 76.6724 198.722C76.3762 198.722 76.1787 198.919 75.9813 199.018C75.7838 199.215 75.5863 199.512 75.4876 199.808C75.3888 200.203 74.8951 200.499 74.5002 200.4C74.1052 200.302 73.809 199.808 73.9077 199.413C74.0065 198.82 74.4014 198.228 74.8951 197.833Z" fill="#641E0F"/>
<path d="M61.2692 193.884C61.6642 193.587 62.1579 193.291 62.6516 193.192C62.7503 193.192 62.849 193.192 62.9478 193.192C63.0465 193.192 63.1452 193.192 63.244 193.192C63.3427 193.192 63.5402 193.192 63.7377 193.192C63.9352 193.192 64.1326 193.291 64.2314 193.291C65.12 193.587 65.8112 194.279 66.2062 195.167C66.3049 195.365 66.3049 195.661 66.3049 195.858C66.3049 196.056 66.3049 196.253 66.3049 196.55C66.3049 197.043 65.9099 197.339 65.4163 197.241C65.2188 197.241 65.0213 197.142 64.8238 196.944C64.7251 196.747 64.6263 196.55 64.6263 196.352C64.6263 196.253 64.6263 196.155 64.6263 195.957C64.6263 195.858 64.6263 195.76 64.5276 195.661C64.3301 195.266 64.0339 194.871 63.6389 194.772C63.5402 194.772 63.4415 194.772 63.3427 194.673C63.244 194.673 63.1452 194.673 62.9478 194.673H62.849C62.5528 194.673 62.3553 194.772 62.1579 194.97C61.9604 195.068 61.8616 195.266 61.7629 195.463C61.5654 195.858 61.0717 196.056 60.6768 195.858C60.4793 195.76 60.3805 195.562 60.2818 195.365C60.1831 195.167 60.2818 194.97 60.3805 194.772C60.578 194.476 60.8742 194.18 61.2692 193.884Z" fill="#641E0F"/>
<path d="M65.7124 211.459C60.7754 210.175 57.4183 206.226 57.6158 202.276C57.6158 201.486 58.5044 200.993 59.3931 201.289L76.1788 205.732C77.0674 205.93 77.5611 206.719 77.2649 207.411C75.5863 210.965 70.6494 212.743 65.7124 211.459Z" fill="white"/>
<path d="M82.4981 211.459C81.9057 214.52 83.9792 217.482 87.0401 218.075C90.101 218.667 93.0632 216.594 93.6557 213.533C94.2481 210.472 92.1746 207.509 89.1136 206.917C86.0527 206.423 83.0905 208.398 82.4981 211.459Z" fill="#FF8358"/>
<path d="M94.4451 274.455L98.6909 265.568L95.2351 263.89C94.7414 263.692 94.1489 263.692 93.754 263.988L65.2182 280.478C64.7245 280.774 64.4283 281.268 64.4283 281.86V325.701C64.4283 326.293 64.8233 326.885 65.317 327.182L66.8968 327.972C67.7855 328.366 68.9703 327.972 69.3653 327.083L71.4388 322.64L94.3464 309.409L94.4451 274.455Z" fill="#DCEFFE"/>
<path d="M98.6908 311.384L71.1425 327.281C70.0564 327.972 68.674 327.083 68.674 325.8V285.316C68.674 283.737 69.4639 282.354 70.8463 281.564L98.7896 265.47L98.6908 311.384Z" fill="#18828C"/>
<path d="M107.676 298.646C104.22 298.646 100.863 296.671 99.2832 293.413L79.7328 253.226C77.4618 248.585 79.4366 242.957 84.0773 240.686C88.7181 238.415 94.3462 240.39 96.6172 245.031L116.069 285.119C118.34 289.759 116.365 295.388 111.724 297.659C110.441 298.35 109.058 298.646 107.676 298.646Z" fill="#D4F7FA"/>
<path d="M66.8967 315.037C62.7497 315.037 59.2938 311.68 59.2938 307.434C59.2938 303.188 62.6509 299.831 66.8967 299.831C97.2098 299.831 101.456 288.476 101.554 288.377C102.245 284.23 106.096 281.465 110.243 282.157C114.39 282.848 117.155 286.699 116.464 290.846C116.069 293.314 111.231 315.037 66.8967 315.037Z" fill="#FF8358"/>
<path d="M72.3274 304.472C70.945 305.36 69.069 305.064 68.0816 303.682L63.8358 297.856C62.8484 296.474 63.1446 294.598 64.527 293.709C65.9093 292.82 67.7854 293.117 68.7728 294.499L73.0186 300.325C73.9072 301.707 73.611 303.583 72.3274 304.472Z" fill="#FF8358"/>
<path d="M267.428 433.616L185.83 384.286L40.1604 468.089L122.339 516.607L267.428 433.616Z" fill="#48E4F3"/>
<path d="M122.919 539.589L40.1605 491.652V468.089L122.339 516.607L122.919 539.589Z" fill="#16A6B3"/>
<path d="M267.428 456.018L122.919 539.589L122.339 516.607L267.428 433.616V456.018Z" fill="#29C5D4"/>
<path d="M183.509 504.536V481.67L206.955 467.973V490.956L183.509 504.536Z" fill="#C5DEFC"/>
<path d="M198.714 427.697C190.893 427.697 184.553 424.163 184.553 419.804C184.553 415.445 190.893 411.911 198.714 411.911C206.535 411.911 212.875 415.445 212.875 419.804C212.875 424.163 206.535 427.697 198.714 427.697Z" fill="#C5DEFC"/>
<path d="M102.955 483.759C95.1344 483.759 88.7944 480.225 88.7944 475.866C88.7944 471.507 95.1344 467.973 102.955 467.973C110.776 467.973 117.116 471.507 117.116 475.866C117.116 480.225 110.776 483.759 102.955 483.759Z" fill="#83F2FD"/>
<path d="M154.259 468.205C134.13 468.205 117.812 459.111 117.812 447.893C117.812 436.675 134.13 427.58 154.259 427.58C174.387 427.58 190.705 436.675 190.705 447.893C190.705 459.111 174.387 468.205 154.259 468.205Z" fill="#83F2FD"/>
<path d="M206.955 467.973L124.196 419.804L101.098 433.152L183.509 481.67L206.955 467.973Z" fill="white"/>
<path d="M355.642 490.143L274.044 440.812L128.374 524.616L210.553 573.134L355.642 490.143Z" fill="#48E4F3"/>
<path d="M211.134 596L128.375 548.178V524.616L210.554 573.134L211.134 596Z" fill="#16A6B3"/>
<path d="M355.643 512.429L211.134 596L210.554 573.134L355.643 490.143V512.429Z" fill="#29C5D4"/>
<path d="M271.723 560.946V538.196L295.17 524.5V547.482L271.723 560.946Z" fill="#D4F7FA"/>
<path d="M286.929 484.223C279.108 484.223 272.768 480.689 272.768 476.33C272.768 471.971 279.108 468.438 286.929 468.438C294.75 468.438 301.089 471.971 301.089 476.33C301.089 480.689 294.75 484.223 286.929 484.223Z" fill="#83F2FD"/>
<path d="M191.17 540.17C183.349 540.17 177.009 536.636 177.009 532.277C177.009 527.918 183.349 524.384 191.17 524.384C198.991 524.384 205.331 527.918 205.331 532.277C205.331 536.636 198.991 540.17 191.17 540.17Z" fill="#83F2FD"/>
<path d="M242.473 524.616C222.344 524.616 206.027 515.522 206.027 504.303C206.027 493.085 222.344 483.991 242.473 483.991C262.602 483.991 278.92 493.085 278.92 504.303C278.92 515.522 262.602 524.616 242.473 524.616Z" fill="#83F2FD"/>
<path d="M295.17 524.5L212.411 476.214L189.313 489.679L271.723 538.197L295.17 524.5Z" fill="white"/>
<path d="M319.196 424.33L237.714 375L92.0444 458.804L174.107 507.321L319.196 424.33Z" fill="#83F2FD"/>
<path d="M174.688 530.303L92.0449 482.366V458.803L174.107 507.321L174.688 530.303Z" fill="#16A6B3"/>
<path d="M319.197 446.732L174.688 530.304L174.107 507.321L319.197 424.33V446.732Z" fill="#29C5D4"/>
<path d="M235.393 495.25V472.384L258.84 458.688V481.67L235.393 495.25Z" fill="#D4F7FA"/>
<path d="M250.599 418.411C242.778 418.411 236.438 414.877 236.438 410.518C236.438 406.159 242.778 402.625 250.599 402.625C258.419 402.625 264.759 406.159 264.759 410.518C264.759 414.877 258.419 418.411 250.599 418.411Z" fill="#D4F7FA"/>
<path d="M154.84 474.473C147.019 474.473 140.679 470.939 140.679 466.58C140.679 462.221 147.019 458.688 154.84 458.688C162.66 458.688 169 462.221 169 466.58C169 470.939 162.66 474.473 154.84 474.473Z" fill="#D4F7FA"/>
<path d="M206.027 458.92C185.898 458.92 169.581 449.825 169.581 438.607C169.581 427.389 185.898 418.295 206.027 418.295C226.156 418.295 242.473 427.389 242.473 438.607C242.473 449.825 226.156 458.92 206.027 458.92Z" fill="#D4F7FA"/>
<path d="M258.84 458.688L175.965 410.518L152.982 423.866L235.393 472.384L258.84 458.688Z" fill="white"/>
<path d="M364.116 434.464H367.366C373.634 425.062 388.027 418.446 404.857 418.446C421.687 418.446 436.196 425.062 442.348 434.464H445.598V444.678C445.598 459.187 427.375 470.911 404.857 470.911C382.339 470.911 364.116 459.187 364.116 444.678V434.464Z" fill="#E5D723"/>
<path d="M369.455 431.678L380.83 450.25L384.312 467.428C372.241 462.902 364 454.428 364 444.795V434.58H367.25C367.946 433.42 368.643 432.491 369.455 431.678Z" fill="#C1B121"/>
<path d="M404.857 460.464C382.356 460.464 364.116 448.72 364.116 434.232C364.116 419.745 382.356 408 404.857 408C427.358 408 445.598 419.745 445.598 434.232C445.598 448.72 427.358 460.464 404.857 460.464Z" fill="#F3EB23"/>
<path d="M404.857 453.384C387.741 453.384 373.866 444.81 373.866 434.232C373.866 423.655 387.741 415.081 404.857 415.081C421.973 415.081 435.848 423.655 435.848 434.232C435.848 444.81 421.973 453.384 404.857 453.384Z" fill="#E5D723"/>
<path d="M424.589 444.795H425.982L426.214 443.286L423.892 443.75L424.589 444.795Z" fill="#EFA42F"/>
<path d="M387.794 427.152L385.241 425.643L385.589 423.902L387.098 424.366L388.955 423.089L391.509 424.598C393.83 423.089 395.919 422.277 395.919 422.277L398.821 423.902V422.973L400.678 423.089L400.33 424.83C400.33 424.83 397.892 425.643 395.339 426.92L404.509 432.375C408.339 430.17 413.214 428.661 420.294 432.375C427.259 435.973 426.33 440.152 423.312 443.402L424.937 444.33L426.214 443.17L425.866 445.027L422.5 447.929L419.946 446.42C416.812 448.741 413.446 450.134 413.33 450.134C410.892 448.741 410.776 448.625 408.223 447L408.455 445.259L411.125 445.491L410.544 446.304C412.401 445.607 414.259 444.795 415.651 443.866L405.205 437.598C399.75 440.616 394.178 444.214 387.214 438.759C381.991 434.464 384.312 430.286 387.794 427.152ZM419.134 440.964C420.875 438.875 420.526 436.67 416.696 435.161C414.259 434.232 412.053 434.58 409.732 435.393L419.134 440.964ZM393.017 436.438C395.687 438.063 398.009 436.67 400.678 434.813L391.625 429.357C389.535 431.446 388.839 433.884 393.017 436.438Z" fill="#C1B121"/>
<path d="M388.143 425.411L385.589 423.902L389.187 421.348L391.741 422.857C394.062 421.348 396.152 420.536 396.152 420.536L400.794 423.205C400.794 423.205 398.357 424.018 395.803 425.295L404.973 430.75C408.803 428.545 413.678 427.036 420.759 430.75C427.723 434.348 426.794 438.527 423.777 441.777L426.33 443.286L422.964 446.187L420.41 444.679C417.277 447 413.91 448.393 413.794 448.393C411.357 447 411.241 446.884 408.687 445.259C411.473 444.446 414.143 443.286 416.116 442.125L405.669 435.857C400.214 438.875 394.643 442.473 387.678 437.018C382.339 432.723 384.544 428.545 388.143 425.411ZM419.482 439.223C421.223 437.134 420.875 434.928 417.044 433.42C414.607 432.491 412.402 432.839 410.08 433.652L419.482 439.223ZM393.366 434.696C396.035 436.321 398.357 434.929 401.027 433.071L391.973 427.616C389.768 429.705 389.071 432.143 393.366 434.696Z" fill="#F8F423"/>
<path d="M333.116 557.464H336.366C342.634 548.062 357.027 541.446 373.857 541.446C390.687 541.446 405.196 548.062 411.348 557.464H414.598V567.678C414.598 582.187 396.375 593.911 373.857 593.911C351.339 593.911 333.116 582.187 333.116 567.678V557.464Z" fill="#E5D723"/>
<path d="M338.455 554.678L349.83 573.25L353.312 590.428C341.241 585.902 333 577.428 333 567.795V557.58H336.25C336.946 556.42 337.643 555.491 338.455 554.678Z" fill="#C1B121"/>
<path d="M373.857 583.464C351.356 583.464 333.116 571.72 333.116 557.232C333.116 542.745 351.356 531 373.857 531C396.358 531 414.598 542.745 414.598 557.232C414.598 571.72 396.358 583.464 373.857 583.464Z" fill="#F3EB23"/>
<path d="M373.857 576.384C356.741 576.384 342.866 567.81 342.866 557.232C342.866 546.655 356.741 538.081 373.857 538.081C390.973 538.081 404.848 546.655 404.848 557.232C404.848 567.81 390.973 576.384 373.857 576.384Z" fill="#E5D723"/>
<path d="M393.589 567.795H394.982L395.214 566.286L392.892 566.75L393.589 567.795Z" fill="#EFA42F"/>
<path d="M356.794 550.152L354.241 548.643L354.589 546.902L356.098 547.366L357.955 546.089L360.509 547.598C362.83 546.089 364.919 545.277 364.919 545.277L367.821 546.902V545.973L369.678 546.089L369.33 547.83C369.33 547.83 366.892 548.643 364.339 549.92L373.509 555.375C377.339 553.17 382.214 551.661 389.294 555.375C396.259 558.973 395.33 563.152 392.312 566.402L393.937 567.33L395.214 566.17L394.866 568.027L391.5 570.929L388.946 569.42C385.812 571.741 382.446 573.134 382.33 573.134C379.892 571.741 379.776 571.625 377.223 570L377.455 568.259L380.125 568.491L379.544 569.304C381.401 568.607 383.259 567.795 384.651 566.866L374.205 560.598C368.75 563.616 363.178 567.214 356.214 561.759C350.991 557.464 353.312 553.286 356.794 550.152ZM388.134 563.964C389.875 561.875 389.526 559.67 385.696 558.161C383.259 557.232 381.053 557.58 378.732 558.393L388.134 563.964ZM362.017 559.438C364.687 561.063 367.009 559.67 369.678 557.813L360.625 552.357C358.535 554.446 357.839 556.884 362.017 559.438Z" fill="#C1B121"/>
<path d="M357.143 548.411L354.589 546.902L358.187 544.348L360.741 545.857C363.062 544.348 365.152 543.536 365.152 543.536L369.794 546.205C369.794 546.205 367.357 547.018 364.803 548.295L373.973 553.75C377.803 551.545 382.678 550.036 389.759 553.75C396.723 557.348 395.794 561.527 392.777 564.777L395.33 566.286L391.964 569.187L389.41 567.679C386.277 570 382.91 571.393 382.794 571.393C380.357 570 380.241 569.884 377.687 568.259C380.473 567.446 383.143 566.286 385.116 565.125L374.669 558.857C369.214 561.875 363.643 565.473 356.678 560.018C351.339 555.723 353.544 551.545 357.143 548.411ZM388.482 562.223C390.223 560.134 389.875 557.928 386.044 556.42C383.607 555.491 381.402 555.839 379.08 556.652L388.482 562.223ZM362.366 557.696C365.035 559.321 367.357 557.929 370.027 556.071L360.973 550.616C358.768 552.705 358.071 555.143 362.366 557.696Z" fill="#F8F423"/>
<path d="M0.116013 544.464H3.366C9.63387 535.062 24.0267 528.446 40.8571 528.446C57.6874 528.446 72.1964 535.062 78.3482 544.464H81.5982V554.678C81.5982 569.187 63.3749 580.911 40.8571 580.911C18.3392 580.911 0.116013 569.187 0.116013 554.678V544.464Z" fill="#E5D723"/>
<path d="M5.45536 541.678L16.8304 560.25L20.3125 577.428C8.24107 572.902 -5.72205e-06 564.428 -5.72205e-06 554.795V544.58H3.25C3.94643 543.42 4.64286 542.491 5.45536 541.678Z" fill="#C1B121"/>
<path d="M40.8571 570.464C18.3564 570.464 0.116013 558.72 0.116013 544.232C0.116013 529.745 18.3564 518 40.8571 518C63.3578 518 81.5982 529.745 81.5982 544.232C81.5982 558.72 63.3578 570.464 40.8571 570.464Z" fill="#F3EB23"/>
<path d="M40.8571 563.384C23.7412 563.384 9.866 554.81 9.866 544.232C9.866 533.655 23.7412 525.081 40.8571 525.081C57.973 525.081 71.8482 533.655 71.8482 544.232C71.8482 554.81 57.973 563.384 40.8571 563.384Z" fill="#E5D723"/>
<path d="M60.5889 554.795H61.9817L62.2139 553.286L59.8924 553.75L60.5889 554.795Z" fill="#EFA42F"/>
<path d="M23.7942 537.152L21.2407 535.643L21.5889 533.902L23.0978 534.366L24.9549 533.089L27.5085 534.598C29.8299 533.089 31.9192 532.277 31.9192 532.277L34.821 533.902V532.973L36.6782 533.089L36.3299 534.83C36.3299 534.83 33.8924 535.643 31.3389 536.92L40.5085 542.375C44.3389 540.17 49.2139 538.661 56.2942 542.375C63.2585 545.973 62.3299 550.152 59.3121 553.402L60.9371 554.33L62.2139 553.17L61.8657 555.027L58.4996 557.929L55.946 556.42C52.8121 558.741 49.446 560.134 49.3299 560.134C46.8924 558.741 46.7764 558.625 44.2228 557L44.4549 555.259L47.1246 555.491L46.5442 556.304C48.4014 555.607 50.2585 554.795 51.6514 553.866L41.2049 547.598C35.7496 550.616 30.1782 554.214 23.2139 548.759C17.9907 544.464 20.3121 540.286 23.7942 537.152ZM55.1335 550.964C56.8746 548.875 56.5264 546.67 52.696 545.161C50.2585 544.232 48.0532 544.58 45.7317 545.393L55.1335 550.964ZM29.0174 546.438C31.6871 548.063 34.0085 546.67 36.6782 544.813L27.6246 539.357C25.5353 541.446 24.8389 543.884 29.0174 546.438Z" fill="#C1B121"/>
<path d="M24.1426 535.411L21.589 533.902L25.1872 531.348L27.7408 532.857C30.0622 531.348 32.1515 530.536 32.1515 530.536L36.7944 533.205C36.7944 533.205 34.3569 534.018 31.8033 535.295L40.9729 540.75C44.8033 538.545 49.6783 537.036 56.7587 540.75C63.7229 544.348 62.7944 548.527 59.7765 551.777L62.3301 553.286L58.964 556.187L56.4104 554.679C53.2765 557 49.9104 558.393 49.7944 558.393C47.3569 557 47.2408 556.884 44.6872 555.259C47.4729 554.446 50.1426 553.286 52.1158 552.125L41.6694 545.857C36.214 548.875 30.6426 552.473 23.6783 547.018C18.339 542.723 20.5444 538.545 24.1426 535.411ZM55.4819 549.223C57.2229 547.134 56.8747 544.928 53.0444 543.42C50.6069 542.491 48.4015 542.839 46.0801 543.652L55.4819 549.223ZM29.3658 544.696C32.0354 546.321 34.3569 544.929 37.0265 543.071L27.9729 537.616C25.7676 539.705 25.0712 542.143 29.3658 544.696Z" fill="#F8F423"/>
<path d="M0.116013 519.464H3.366C9.63387 510.062 24.0267 503.446 40.8571 503.446C57.6874 503.446 72.1964 510.062 78.3482 519.464H81.5982V529.678C81.5982 544.187 63.3749 555.911 40.8571 555.911C18.3392 555.911 0.116013 544.187 0.116013 529.678V519.464Z" fill="#E5D723"/>
<path d="M5.45536 516.678L16.8304 535.25L20.3125 552.428C8.24107 547.902 -5.72205e-06 539.428 -5.72205e-06 529.795V519.58H3.25C3.94643 518.42 4.64286 517.491 5.45536 516.678Z" fill="#C1B121"/>
<path d="M40.8571 545.464C18.3564 545.464 0.116013 533.72 0.116013 519.232C0.116013 504.745 18.3564 493 40.8571 493C63.3578 493 81.5982 504.745 81.5982 519.232C81.5982 533.72 63.3578 545.464 40.8571 545.464Z" fill="#F3EB23"/>
<path d="M40.8571 538.384C23.7412 538.384 9.866 529.81 9.866 519.232C9.866 508.655 23.7412 500.081 40.8571 500.081C57.973 500.081 71.8482 508.655 71.8482 519.232C71.8482 529.81 57.973 538.384 40.8571 538.384Z" fill="#E5D723"/>
<path d="M60.5889 529.795H61.9817L62.2139 528.286L59.8924 528.75L60.5889 529.795Z" fill="#EFA42F"/>
<path d="M23.7942 512.152L21.2407 510.643L21.5889 508.902L23.0978 509.366L24.9549 508.089L27.5085 509.598C29.8299 508.089 31.9192 507.277 31.9192 507.277L34.821 508.902V507.973L36.6782 508.089L36.3299 509.83C36.3299 509.83 33.8924 510.643 31.3389 511.92L40.5085 517.375C44.3389 515.17 49.2139 513.661 56.2942 517.375C63.2585 520.973 62.3299 525.152 59.3121 528.402L60.9371 529.33L62.2139 528.17L61.8657 530.027L58.4996 532.929L55.946 531.42C52.8121 533.741 49.446 535.134 49.3299 535.134C46.8924 533.741 46.7764 533.625 44.2228 532L44.4549 530.259L47.1246 530.491L46.5442 531.304C48.4014 530.607 50.2585 529.795 51.6514 528.866L41.2049 522.598C35.7496 525.616 30.1782 529.214 23.2139 523.759C17.9907 519.464 20.3121 515.286 23.7942 512.152ZM55.1335 525.964C56.8746 523.875 56.5264 521.67 52.696 520.161C50.2585 519.232 48.0532 519.58 45.7317 520.393L55.1335 525.964ZM29.0174 521.438C31.6871 523.063 34.0085 521.67 36.6782 519.813L27.6246 514.357C25.5353 516.446 24.8389 518.884 29.0174 521.438Z" fill="#C1B121"/>
<path d="M24.1426 510.411L21.589 508.902L25.1872 506.348L27.7408 507.857C30.0622 506.348 32.1515 505.536 32.1515 505.536L36.7944 508.205C36.7944 508.205 34.3569 509.018 31.8033 510.295L40.9729 515.75C44.8033 513.545 49.6783 512.036 56.7587 515.75C63.7229 519.348 62.7944 523.527 59.7765 526.777L62.3301 528.286L58.964 531.187L56.4104 529.679C53.2765 532 49.9104 533.393 49.7944 533.393C47.3569 532 47.2408 531.884 44.6872 530.259C47.4729 529.446 50.1426 528.286 52.1158 527.125L41.6694 520.857C36.214 523.875 30.6426 527.473 23.6783 522.018C18.339 517.723 20.5444 513.545 24.1426 510.411ZM55.4819 524.223C57.2229 522.134 56.8747 519.928 53.0444 518.42C50.6069 517.491 48.4015 517.839 46.0801 518.652L55.4819 524.223ZM29.3658 519.696C32.0354 521.321 34.3569 519.929 37.0265 518.071L27.9729 512.616C25.7676 514.705 25.0712 517.143 29.3658 519.696Z" fill="#F8F423"/>
<path d="M7.11601 499.464H10.366C16.6339 490.062 31.0267 483.446 47.8571 483.446C64.6874 483.446 79.1964 490.062 85.3482 499.464H88.5982V509.678C88.5982 524.187 70.3749 535.911 47.8571 535.911C25.3392 535.911 7.11601 524.187 7.11601 509.678V499.464Z" fill="#E5D723"/>
<path d="M12.4554 496.678L23.8304 515.25L27.3125 532.428C15.2411 527.902 6.99999 519.428 6.99999 509.795V499.58H10.25C10.9464 498.42 11.6429 497.491 12.4554 496.678Z" fill="#C1B121"/>
<path d="M47.8571 525.464C25.3564 525.464 7.11601 513.72 7.11601 499.232C7.11601 484.745 25.3564 473 47.8571 473C70.3578 473 88.5982 484.745 88.5982 499.232C88.5982 513.72 70.3578 525.464 47.8571 525.464Z" fill="#F3EB23"/>
<path d="M47.8571 518.384C30.7412 518.384 16.866 509.81 16.866 499.232C16.866 488.655 30.7412 480.081 47.8571 480.081C64.973 480.081 78.8482 488.655 78.8482 499.232C78.8482 509.81 64.973 518.384 47.8571 518.384Z" fill="#E5D723"/>
<path d="M67.5889 509.795H68.9817L69.2139 508.286L66.8924 508.75L67.5889 509.795Z" fill="#EFA42F"/>
<path d="M30.7942 492.152L28.2407 490.643L28.5889 488.902L30.0978 489.366L31.9549 488.089L34.5085 489.598C36.8299 488.089 38.9192 487.277 38.9192 487.277L41.821 488.902V487.973L43.6782 488.089L43.3299 489.83C43.3299 489.83 40.8924 490.643 38.3389 491.92L47.5085 497.375C51.3389 495.17 56.2139 493.661 63.2942 497.375C70.2585 500.973 69.3299 505.152 66.3121 508.402L67.9371 509.33L69.2139 508.17L68.8657 510.027L65.4996 512.929L62.946 511.42C59.8121 513.741 56.446 515.134 56.3299 515.134C53.8924 513.741 53.7764 513.625 51.2228 512L51.4549 510.259L54.1246 510.491L53.5442 511.304C55.4014 510.607 57.2585 509.795 58.6514 508.866L48.2049 502.598C42.7496 505.616 37.1782 509.214 30.2139 503.759C24.9907 499.464 27.3121 495.286 30.7942 492.152ZM62.1335 505.964C63.8746 503.875 63.5264 501.67 59.696 500.161C57.2585 499.232 55.0532 499.58 52.7317 500.393L62.1335 505.964ZM36.0174 501.438C38.6871 503.063 41.0085 501.67 43.6782 499.813L34.6246 494.357C32.5353 496.446 31.8389 498.884 36.0174 501.438Z" fill="#C1B121"/>
<path d="M31.1426 490.411L28.589 488.902L32.1872 486.348L34.7408 487.857C37.0622 486.348 39.1515 485.536 39.1515 485.536L43.7944 488.205C43.7944 488.205 41.3569 489.018 38.8033 490.295L47.9729 495.75C51.8033 493.545 56.6783 492.036 63.7587 495.75C70.7229 499.348 69.7944 503.527 66.7765 506.777L69.3301 508.286L65.964 511.187L63.4104 509.679C60.2765 512 56.9104 513.393 56.7944 513.393C54.3569 512 54.2408 511.884 51.6872 510.259C54.4729 509.446 57.1426 508.286 59.1158 507.125L48.6694 500.857C43.214 503.875 37.6426 507.473 30.6783 502.018C25.339 497.723 27.5444 493.545 31.1426 490.411ZM62.4819 504.223C64.2229 502.134 63.8747 499.928 60.0444 498.42C57.6069 497.491 55.4015 497.839 53.0801 498.652L62.4819 504.223ZM36.3658 499.696C39.0354 501.321 41.3569 499.929 44.0265 498.071L34.9729 492.616C32.7676 494.705 32.0712 497.143 36.3658 499.696Z" fill="#F8F423"/>
<path d="M192.581 438.182C194.509 438.182 196.148 439.628 196.919 441.459C197.69 443.194 197.69 445.218 197.69 447.146C197.69 448.785 197.594 450.713 196.437 451.869C195.666 452.64 194.606 452.93 193.545 453.219C191.617 453.797 189.593 454.279 187.569 454.472C185.256 454.665 182.942 454.375 180.629 454.761C179.183 454.954 177.738 455.436 176.292 455.821C172.243 456.785 167.906 456.689 163.954 455.532C163.086 455.243 162.123 454.954 161.544 454.183C160.58 453.026 160.87 451.098 161.93 449.942C162.99 448.785 164.34 448.11 165.785 447.435C170.026 445.508 174.171 443.58 178.412 441.652C182.557 439.724 186.798 437.797 191.328 437.7C192.774 437.7 194.702 438.279 194.606 439.724L192.581 438.182Z" fill="#175E65"/>
<path d="M189.182 445.616H189.567C192.362 445.423 194.387 442.917 194.194 440.122L193.519 431.639C193.326 428.844 190.82 426.82 188.025 427.013H187.639C184.844 427.205 182.82 429.712 183.013 432.507L183.688 440.989C183.977 443.688 186.386 445.808 189.182 445.616Z" fill="#D4F7FA"/>
<path d="M209.16 461.123C208.389 462.568 207.521 464.014 206.75 465.46C205.979 466.906 205.208 468.448 204.63 469.99C203.762 472.304 202.22 476.834 204.148 478.954C207.136 482.135 212.148 479.436 214.558 477.123C218.22 473.749 221.594 470.183 224.775 466.231C226.124 464.593 227.474 462.761 227.859 460.737C229.112 454.472 225.353 445.315 217.546 447.532C214.654 448.303 213.497 450.327 212.726 452.93C211.955 455.821 210.606 458.52 209.16 461.123Z" fill="#175E65"/>
<path d="M219.088 458.038H219.474C222.269 458.038 224.583 455.725 224.583 452.93V444.351C224.583 441.556 222.269 439.242 219.474 439.242H219.088C216.293 439.242 213.98 441.556 213.98 444.351V452.93C213.98 455.821 216.293 458.038 219.088 458.038Z" fill="#D4F7FA"/>
<path d="M193.545 280.298L220.148 289.551L230.462 309.889L227.667 378.229V442.616C227.667 446.086 224.775 448.978 221.305 448.978H216.968C213.69 448.978 210.895 446.472 210.606 443.098L203.859 365.794L201.642 335.528L196.148 333.312L193.642 369.554L196.63 429.314C196.822 433.074 193.738 436.062 189.979 435.773L186.894 435.58C184.003 435.387 181.593 433.17 181.207 430.278L171.183 363.867V292.154L193.545 280.298Z" fill="#175E65"/>
<path d="M217.257 438.278H221.594C223.618 438.278 225.45 436.736 226.992 435.001C228.149 433.555 230.462 434.423 230.462 436.254V441.17C230.462 446.086 226.51 450.038 221.594 450.038H217.257C212.63 450.038 208.871 446.568 208.485 441.941V435.869C208.485 434.808 209.835 434.519 210.413 435.29C211.377 436.929 213.112 438.375 217.257 438.278Z" fill="#18828C"/>
<path d="M186.027 427.387H189.979C191.81 427.387 195.377 426.616 196.051 424.302C196.533 422.664 197.979 423.724 197.979 425.459V429.989C197.979 434.519 194.413 438.182 189.979 438.182H186.027C181.882 438.182 178.412 434.905 178.123 430.664V425.073C178.123 424.11 179.28 423.82 179.858 424.591C180.725 426.134 182.268 427.483 186.027 427.387Z" fill="#18828C"/>
<path d="M170.508 145.065C169.834 146.992 165.978 147.474 161.833 146.125C157.689 144.775 154.797 142.077 155.472 140.149C156.146 138.221 160.002 137.739 164.147 139.089C168.291 140.438 171.087 143.04 170.508 145.065Z" fill="#48E4F3"/>
<path d="M167.906 136.872C172.725 138.703 178.123 136.197 179.955 131.281C181.786 126.462 179.28 121.064 174.46 119.233C169.641 117.401 164.243 119.907 162.412 124.823C160.484 129.739 162.99 135.137 167.906 136.872Z" fill="#FF8358"/>
<path d="M172.147 128.004L168.002 124.341C166.267 122.895 163.761 123.666 162.99 125.787L157.303 141.209L157.785 141.691C159.424 143.522 161.737 144.583 164.532 144.776C165.303 144.872 166.171 144.776 166.942 144.679L167.424 144.583L169.545 137.257L172.147 128.004Z" fill="#FF8358"/>
<path d="M189.593 206.657L157.11 180.343C156.05 179.379 155.568 177.933 155.954 176.584L168.677 144.486L167.328 144.679L166.749 144.775C165.978 144.872 165.207 144.872 164.339 144.872C161.544 144.679 159.231 143.619 157.592 141.787L157.207 141.305L156.243 140.245C156.243 140.245 135.808 182.078 136.001 184.584C136.194 187.09 137.351 189.596 139.375 191.331L149.206 198.56L176.484 221.693C178.316 223.332 180.629 224.103 182.942 224.103C185.738 224.103 188.437 222.946 190.461 220.633C194.124 216.488 193.738 210.223 189.593 206.657Z" fill="white"/>
<path d="M173.014 220.055L168.87 282.611C168.388 289.744 172.243 296.395 178.701 299.479L191.521 305.744C199.232 310.467 208.1 312.491 216.967 311.528C220.052 311.238 223.136 310.564 226.124 309.503L232.679 307.19L230.269 224.778C230.173 221.308 228.823 218.127 226.413 215.621C225.546 214.657 224.486 213.79 223.329 213.115L217.449 209.452L215.811 208.392C211.377 205.307 202.798 202.127 195.087 201.163C193.545 200.97 192.099 200.874 190.75 200.874C187.665 200.874 184.87 201.355 182.942 202.512C176.87 206.175 173.014 212.826 173.014 220.055Z" fill="white"/>
<path opacity="0.42" d="M216.989 311.507C220.073 311.217 223.158 310.543 226.146 309.483L232.7 307.169L230.29 224.757C230.194 221.287 228.845 218.106 226.435 215.6C225.182 215.696 223.832 215.889 222.579 216.275C222.194 216.371 221.808 216.468 221.519 216.66C219.688 217.142 218.049 217.817 216.796 219.166C213.904 222.155 214.579 227.07 216.025 231.022C217.374 234.974 219.302 239.119 218.242 243.167C217.471 246.059 215.254 248.372 214.579 251.36C213.326 257.625 219.977 273.24 219.302 279.506C218.917 283.168 216.314 286.06 214.676 289.241C211.302 296.277 212.748 304.856 216.989 311.507Z" fill="#175E65" fill-opacity="0.2"/>
<path d="M201.642 215.814C195.945 215.814 191.328 212.491 191.328 208.392C191.328 204.293 195.945 200.97 201.642 200.97C207.338 200.97 211.955 204.293 211.955 208.392C211.955 212.491 207.338 215.814 201.642 215.814Z" fill="#48E4F3"/>
<path d="M193.352 190.464V207.91H193.448C194.027 210.609 197.4 212.633 201.641 212.633C205.883 212.633 209.256 210.609 209.834 207.91H209.931V190.464C209.931 188.343 208.967 186.415 207.521 184.97C206.268 183.813 204.629 182.945 202.798 182.753C202.413 182.753 201.931 182.656 201.449 182.656C200.485 182.656 199.521 182.849 198.653 183.235C197.497 183.62 196.533 184.295 195.762 185.162C194.22 186.608 193.352 188.44 193.352 190.464Z" fill="#FF8358"/>
<path d="M193.352 190.464V194.126L209.931 204.536V190.464C209.931 188.343 208.967 186.415 207.521 184.97C206.268 183.813 204.629 182.945 202.798 182.753C202.413 182.753 201.931 182.656 201.449 182.656C200.485 182.656 199.521 182.849 198.653 183.235C197.497 183.62 196.533 184.295 195.762 185.162C194.22 186.608 193.352 188.44 193.352 190.464Z" fill="#FF8358"/>
<path d="M197.015 159.812C195.762 160.101 194.316 160.39 193.449 159.523C192.292 158.463 192.967 156.535 193.738 155.185C194.605 153.836 195.569 152.197 194.991 150.751C194.509 149.595 193.063 149.113 191.81 148.92C188.726 148.535 185.449 149.306 182.846 151.041C178.605 153.836 176.388 158.752 174.749 163.571C174.557 164.149 174.364 164.921 174.749 165.306C175.039 165.595 175.424 165.692 175.81 165.692C182.171 166.656 188.919 165.113 194.316 161.643L197.015 159.812Z" fill="#175E65"/>
<path d="M179.762 175.041C179.762 186.608 188.34 196.054 199.039 196.054C203.28 196.054 207.136 194.608 210.317 192.006C215.136 188.247 218.221 181.981 218.221 175.041C218.221 173.595 218.124 172.15 217.835 170.704C217.353 168.391 216.582 166.174 215.522 164.246C213.787 161.065 211.184 158.366 208.196 156.631C205.497 154.993 202.317 154.125 199.039 154.125C198.654 154.125 198.172 154.125 197.786 154.125C195.184 154.318 192.678 155.089 190.364 156.246C184.099 159.716 179.762 166.848 179.762 175.041Z" fill="#175E65"/>
<path d="M171.569 176.584C171.569 188.15 180.147 197.596 190.846 197.596C195.087 197.596 198.943 196.151 202.124 193.548C206.943 189.789 210.028 183.524 210.028 176.584C210.028 175.138 209.931 173.692 209.642 172.246C209.16 169.933 208.389 167.716 207.329 165.788C205.594 162.607 202.991 159.909 200.003 158.174C197.304 156.535 194.123 155.667 190.846 155.667C190.461 155.667 189.979 155.667 189.593 155.667C186.991 155.86 184.485 156.631 182.171 157.788C175.906 161.258 171.569 168.391 171.569 176.584Z" fill="#175E65"/>
<path d="M172.918 180.054C172.918 190.849 181.882 199.621 192.967 199.621C197.401 199.621 201.449 198.271 204.726 195.861C209.739 192.295 213.016 186.512 213.016 180.054C213.016 169.258 204.052 160.487 192.967 160.487C192.581 160.487 192.099 160.487 191.714 160.487C181.208 161.162 172.918 169.644 172.918 180.054Z" fill="#FF8358"/>
<path d="M206.75 174.849C206.461 173.595 205.883 172.342 205.112 171.475L203.666 170.029C203.57 169.933 203.57 169.933 203.473 169.933C203.088 165.306 200.003 160.294 196.148 158.173L203.088 160.487L205.112 163.571V160.005C210.317 162.896 214.172 167.909 215.425 173.885H208.1V174.849H206.75Z" fill="#175E65"/>
<path d="M205.69 178.415C205.69 181.692 208.389 184.391 211.666 184.391C214.943 184.391 217.642 181.692 217.642 178.415C217.642 175.138 214.943 172.439 211.666 172.439C208.293 172.439 205.69 175.138 205.69 178.415Z" fill="#FF8358"/>
<path d="M186.894 160.969H192.388C202.798 160.969 204.051 171.282 204.051 179.186C204.051 180.343 205.015 181.307 206.172 181.307C207.329 181.307 208.293 180.343 208.293 179.186V171.957C209.738 172.15 211.088 172.15 211.184 171.861C211.281 171.668 211.859 170.029 212.823 167.909C210.991 164.728 208.389 162.029 205.208 160.294C202.413 158.655 199.136 157.788 195.762 157.788C195.376 157.788 194.894 157.788 194.509 157.788C191.81 157.981 189.208 158.945 186.894 160.198V160.969Z" fill="#175E65"/>
<path d="M187.665 185.741C183.521 186.897 179.183 184.873 177.352 181.21C176.966 180.536 177.352 179.668 178.123 179.475L192.485 175.427C193.256 175.234 194.027 175.716 194.027 176.391C194.509 180.536 191.81 184.488 187.665 185.741Z" fill="white"/>
<path d="M175.136 175.62C175.425 175.523 175.714 175.33 175.907 174.945C176.292 174.27 176.967 173.692 177.642 173.499C178.316 173.306 178.798 173.499 178.895 174.077C178.991 174.367 179.377 174.463 179.762 174.174C180.148 173.885 180.437 173.403 180.34 173.114C180.148 172.15 179.184 171.668 177.931 172.053C176.678 172.439 175.425 173.499 174.654 174.752C174.364 175.138 174.461 175.523 174.846 175.62C174.943 175.716 175.039 175.716 175.136 175.62Z" fill="#715154"/>
<path d="M189.401 171.379C189.69 171.282 189.979 171.09 190.172 170.704C190.557 170.029 191.232 169.451 191.907 169.258C192.581 169.065 193.063 169.258 193.16 169.836C193.256 170.126 193.642 170.222 194.027 169.933C194.413 169.644 194.702 169.162 194.606 168.873C194.413 167.909 193.449 167.427 192.196 167.812C190.943 168.198 189.69 169.258 188.919 170.511C188.629 170.897 188.726 171.282 189.111 171.379C189.208 171.379 189.304 171.379 189.401 171.379Z" fill="#715154"/>
<path d="M147.232 8.69995C146.332 10.5 147.232 36.2 165.232 56.6C173.432 65.8 164.532 48 164.532 48C164.532 48 153.832 32.4 152.932 18.4C154.732 19.2999 162.832 23.9 162.832 23.9L164.432 18.4C164.632 18.5999 152.632 11.7 147.232 8.69995Z" fill="#EAD700"/>
<path d="M233.632 121.7C228.032 116 217.632 112.3 205.732 112.3C193.832 112.3 183.432 116 177.832 121.7L175.132 122.1L173.332 125.2V131.3C173.332 141.9 187.832 150.3 205.832 150.3C223.832 150.3 238.232 141.8 238.232 131.3V125.2L233.632 123.4V121.7Z" fill="#C7B200"/>
<path d="M205.732 143.6C223.732 143.6 238.232 135.1 238.232 124.6C238.232 114.1 223.632 105.6 205.732 105.6C187.732 105.6 173.232 114.1 173.232 124.6C173.232 135 187.832 143.6 205.732 143.6Z" fill="#F5EB00"/>
<path d="M194.432 98.8V119.3C194.432 123 199.432 125.8 205.832 125.8C212.032 125.8 217.232 122.8 217.232 119.3V98.8H194.432Z" fill="#C7B200"/>
<path d="M163.032 25.3999C163.032 25.3999 164.032 42.0999 165.232 56.7999C165.832 64.9999 166.532 72.5999 167.332 76.2999C170.132 92.9999 184.232 108.4 205.932 108.4C227.632 108.4 241.732 92.8999 244.532 76.2999C246.332 65.5999 248.832 25.3999 248.832 25.3999H163.032Z" fill="#F5EB00"/>
<path d="M164.632 18.6L147.232 8.70005L150.632 6.80005L166.632 15.7L164.632 18.6Z" fill="#F5EB00"/>
<path d="M262.332 70.5L259.032 72.4C259.032 72.4 260.232 91.6 248.632 97.5C264.932 91.6 262.332 70.5 262.332 70.5Z" fill="#C7B200"/>
<path d="M163.932 39.7999C159.732 34.3999 156.632 20.4999 156.632 20.4999C155.032 19.5999 153.532 18.8999 152.932 18.3999C153.832 32.3999 164.532 47.9999 164.532 47.9999C164.332 45.1999 164.232 42.4999 163.932 39.7999Z" fill="#C7B200"/>
<path d="M229.332 46.2001C222.632 48.7001 214.532 50.4001 205.732 50.4001C192.632 50.4001 181.132 47.0001 173.232 41.6001C173.232 54.7001 175.132 101.9 205.632 106.8C241.132 112.6 232.832 58.7001 232.832 58.7001L229.332 46.2001Z" fill="#EAD700"/>
<path d="M227.032 46.8C224.832 92.6 219.432 98.3 204.632 108.4C204.932 108.4 205.332 108.4 205.632 108.4C219.532 108.4 230.432 102 237.132 93.1C243.832 77.4 245.032 47.3 245.232 34.7C241.532 39.9 235.132 44.1 227.032 46.8Z" fill="#DEC100"/>
<path d="M227.532 54.5999L231.132 52.3999L262.332 70.5999L259.032 72.4999L227.532 54.5999Z" fill="#F5EB00"/>
<path d="M227.532 89.8C253.532 99.5 253.032 75.2 253.032 75.2L227.532 61.2V54.5L259.032 72.4C259.032 72.4 261.432 109.6 227.832 96.7C227.732 93.9 227.732 93.9 227.532 89.8Z" fill="#EAD700"/>
<path d="M253.132 75.3C251.432 98.5 233.332 88.1 231.432 88.2001C229.632 88.9001 229.832 88.8 227.732 89.8C253.532 99.5 253.132 75.3 253.132 75.3Z" fill="#C7B200"/>
<path d="M187.932 86.6999C187.932 86.6999 188.632 82.6999 192.532 81.4999C188.832 79.3999 188.532 74.3999 188.532 74.3999C188.532 74.3999 187.832 79.7999 183.632 80.7999C187.632 82.4999 187.932 86.6999 187.932 86.6999Z" fill="#FFFDFC"/>
<path d="M205.732 50.4C229.532 50.4 248.732 39.1 248.732 25.2C248.732 11.3 229.432 0 205.732 0C181.932 0 162.732 11.3 162.732 25.2C162.732 39.1 182.032 50.4 205.732 50.4Z" fill="#F9F300"/>
<path d="M205.732 42.7999C224.632 42.7999 239.832 35.1 239.832 25.5C239.832 16 224.532 8.19995 205.732 8.19995C186.932 8.19995 171.632 15.9 171.632 25.5C171.632 35.1 186.932 42.7999 205.732 42.7999Z" fill="#C7B200"/>
<path d="M205.732 22.3999C191.732 22.3999 179.932 26.5999 174.532 32.6999C179.832 38.6999 191.932 42.9999 205.732 42.9999C219.532 42.9999 231.532 38.7999 236.932 32.6999C231.532 26.5999 219.732 22.3999 205.732 22.3999Z" fill="#998500"/>
<path d="M176.232 43.6C176.232 43.6 177.532 36.3 184.432 34.4C177.732 30.8 177.432 21.8 177.432 21.8C177.432 21.8 176.132 31.3 168.632 33.1C175.632 36.3 176.232 43.6 176.232 43.6Z" fill="#FFFDFC"/>
<path d="M233.739 152.197C234.414 154.125 238.269 154.607 242.414 153.258C246.559 151.908 249.451 149.209 248.776 147.282C248.101 145.354 244.246 144.872 240.101 146.221C235.956 147.571 233.065 150.27 233.739 152.197Z" fill="#48E4F3"/>
<path d="M236.342 144.004C231.522 145.836 226.125 143.33 224.293 138.414C222.462 133.594 224.968 128.197 229.787 126.365C234.607 124.534 240.005 127.04 241.836 131.956C243.667 136.872 241.161 142.269 236.342 144.004Z" fill="#FF8358"/>
<path d="M232.101 135.137L236.245 131.474C237.98 130.028 240.486 130.799 241.258 132.92L246.944 148.342L246.463 148.824C244.824 150.655 242.511 151.716 239.715 151.908C238.944 152.005 238.077 151.908 237.306 151.812L236.824 151.716L234.703 144.39L232.101 135.137Z" fill="#FF8358"/>
<path d="M217.064 216.296L247.041 188.729C248.101 187.765 248.583 186.319 248.198 184.969L235.474 151.619L236.824 151.812L237.402 151.908C238.173 152.005 238.944 152.005 239.812 152.005C242.607 151.812 244.92 150.752 246.559 148.92L246.945 148.438L247.909 147.378C247.909 147.378 270.753 190.367 270.56 192.873C270.367 195.379 269.21 197.886 267.186 199.621L257.355 208.103L230.077 231.236C228.245 232.875 225.932 233.646 223.619 233.646C220.823 233.646 218.124 232.489 216.1 230.176C212.438 226.127 212.92 219.862 217.064 216.296Z" fill="white"/>
<path d="M232.398 145.398C224.998 145.398 219 140.608 219 134.699C219 128.79 224.998 124 232.398 124C239.797 124 245.796 128.79 245.796 134.699C245.796 140.608 239.797 145.398 232.398 145.398Z" fill="#FF8358"/>
<path d="M169.834 133.112C163.286 133.112 157.978 128.322 157.978 122.413C157.978 116.504 163.286 111.714 169.834 111.714C176.381 111.714 181.689 116.504 181.689 122.413C181.689 128.322 176.381 133.112 169.834 133.112Z" fill="#FF8358"/>
<path d="M350.174 258.449C349.688 257.865 349.688 256.893 350.174 255.824C351.146 253.783 353.771 251.936 356.103 251.742C357.27 251.645 358.047 252.034 358.533 252.617L369.031 267.974C369.419 268.557 369.516 269.529 368.933 270.501C367.961 272.542 365.337 274.389 363.004 274.583C361.838 274.681 361.06 274.292 360.574 273.709L350.174 258.449Z" fill="#175E65"/>
<path d="M338.219 248.146C336.955 250.77 337.247 254.95 338.899 257.38C340.551 259.81 342.981 259.615 344.245 256.991C345.509 254.366 345.217 250.187 343.565 247.757C341.815 245.327 339.482 245.522 338.219 248.146Z" fill="#18828C"/>
<path d="M340.454 246.105L348.23 245.133L349.105 258.74L341.135 259.323L340.454 246.105Z" fill="#18828C"/>
<path d="M357.562 239.592L345.801 243.189L347.065 259.809L358.631 261.365L357.562 239.592Z" fill="#18828C"/>
<path d="M353.576 243.092C351.438 247.563 352.021 254.464 354.743 258.546C357.561 262.628 361.546 262.337 363.685 257.866C365.823 253.394 365.24 246.493 362.518 242.411C359.7 238.329 355.715 238.62 353.576 243.092Z" fill="#18828C"/>
<path d="M354.451 244.355C352.701 248.048 353.09 253.783 355.423 257.185C357.756 260.587 361.06 260.295 362.81 256.602C364.559 252.908 364.171 247.174 361.838 243.772C359.505 240.37 356.2 240.661 354.451 244.355Z" fill="#29C5D4"/>
<path d="M392.455 225.11L356.687 241.731L359.117 259.615L389.928 269.724L392.455 225.11Z" fill="#29C5D4"/>
<path d="M378.858 248.768C377.872 236.192 382.972 225.534 390.25 224.963C397.528 224.393 404.227 234.125 405.214 246.7C406.2 259.276 401.1 269.934 393.822 270.505C386.544 271.075 379.844 261.343 378.858 248.768Z" fill="#6BE7F3"/>
<path d="M386.332 263.151C389.442 267.622 393.136 269.08 396.343 266.844C397.801 265.872 399.065 264.22 400.134 262.082C404.119 253.723 403.05 240.309 397.801 232.728C394.691 228.257 390.997 226.799 387.79 229.035C386.332 230.006 385.068 231.659 383.999 233.797C383.124 235.644 382.444 237.782 382.055 240.115C381.083 245.947 381.666 252.653 383.708 258.194C384.388 259.943 385.263 261.693 386.332 263.151Z" fill="#D4F7FA"/>
<path d="M343.177 245.716C341.524 249.118 342.01 254.366 344.051 257.477C346.19 260.587 349.203 260.296 350.855 256.991C352.507 253.589 352.021 248.34 349.98 245.23C347.842 242.12 344.732 242.314 343.177 245.716Z" fill="#18828C"/>
<path d="M393.33 256.602C393.914 256.213 394.497 255.533 394.886 254.561C396.538 251.062 396.149 245.424 393.914 242.217C392.65 240.37 391.095 239.787 389.734 240.662C389.151 241.05 388.568 241.731 388.179 242.703C386.527 246.202 386.915 251.839 389.151 255.047C390.512 256.893 392.067 257.477 393.33 256.602Z" fill="#18828C"/>
<path d="M383.708 257.962L392.358 256.991L391.095 240.273L381.958 239.981C381.083 245.813 381.666 252.519 383.708 257.962Z" fill="#18828C"/>
<path d="M392.844 254.366C393.233 254.075 393.622 253.589 394.011 252.908C395.177 250.381 394.885 246.299 393.33 243.966C392.358 242.605 391.289 242.217 390.317 242.8C389.928 243.091 389.539 243.577 389.151 244.258C387.984 246.785 388.276 250.867 389.831 253.2C390.803 254.658 391.872 255.047 392.844 254.366Z" fill="#29C5D4"/>
<path d="M310.421 482.1C316.447 475.102 323.251 485.016 326.459 489.195C328.597 492.014 336.276 499.401 335.401 503.289C335.109 504.65 334.915 504.553 333.554 504.941C332.193 505.33 330.735 505.136 329.375 504.747C322.279 502.997 316.545 499.012 313.337 492.792C313.24 494.541 313.143 496.194 313.24 497.943C313.24 498.332 312.754 498.526 312.462 498.332C311.782 497.943 311.101 497.457 310.518 496.971C308.088 495.222 309.158 492.695 308.574 489.876C307.991 487.251 308.477 484.336 310.421 482.1Z" fill="#641E0F"/>
<path d="M330.152 425.628L330.249 422.324C323.64 423.004 317.128 423.685 310.518 424.365L310.81 430.294L311.782 481.809C311.782 482.003 311.782 482.003 311.782 481.906C308.671 487.349 320.141 495.611 323.931 496.874C325.778 497.457 329.18 497.943 328.791 494.736C328.597 493.375 327.625 492.306 326.847 491.237C325.681 489.682 322.279 484.627 322.571 482.683C322.473 482.003 330.152 425.628 330.152 425.628Z" fill="#FF8358"/>
<path d="M254.824 469.075C263.572 466.062 264.447 478.115 265.127 483.266C265.613 486.765 268.432 497.068 265.71 499.984C264.738 501.053 264.641 500.859 263.28 500.47C261.92 500.081 260.753 499.207 259.781 498.235C254.533 493.18 251.617 486.863 251.908 479.864C250.936 481.322 250.062 482.78 249.187 484.238C248.992 484.53 248.506 484.53 248.312 484.238C247.923 483.558 247.632 482.78 247.34 482.1C246.174 479.378 248.312 477.726 249.187 474.907C250.159 472.283 252.103 470.047 254.824 469.075Z" fill="#641E0F"/>
<path d="M300.312 430.196L302.062 427.378C296.035 424.656 290.009 421.935 283.983 419.116L281.261 424.365L256.087 469.367C255.99 469.561 255.99 469.464 255.99 469.367C250.547 472.477 256.282 485.405 258.906 488.418C260.267 489.876 262.891 491.917 264.155 489.001C264.738 487.737 264.446 486.279 264.252 485.016C264.058 483.072 263.669 477.046 264.835 475.49C265.321 475.102 300.312 430.196 300.312 430.196Z" fill="#FF8358"/>
<path d="M326.167 321.627L329.958 327.459C332.971 332.027 334.526 337.276 334.429 342.719L333.457 421.546C333.457 421.546 297.3 439.139 278.638 419.213L277.86 362.839C277.86 362.839 273.389 331.055 286.802 323.668L326.167 321.627Z" fill="#D4F7FA"/>
<path d="M344.245 310.255C347.356 312.101 351.341 311.032 353.09 307.922L371.752 275.944C373.599 272.834 372.53 268.849 369.419 267.099C366.309 265.252 362.324 266.321 360.575 269.432L341.913 301.41C340.163 304.52 341.135 308.505 344.245 310.255Z" fill="#83F2FD"/>
<path d="M315.864 266.419L315.281 266.905C312.365 269.432 312.268 274 314.989 277.11L340.941 307.242C343.663 310.352 348.231 310.935 351.05 308.408L351.633 307.922C354.549 305.395 354.646 300.827 351.924 297.716L325.973 267.585C323.251 264.475 318.78 263.989 315.864 266.419Z" fill="#83F2FD"/>
<path d="M290.593 234.83L290.01 238.134C290.01 238.037 290.107 238.037 290.107 237.94C290.302 236.871 290.399 235.899 290.593 234.83Z" fill="#715154"/>
<path d="M302.645 263.309C308.671 264.572 314.6 266.419 320.627 266.71C324.709 266.905 328.694 266.419 332.582 265.447C335.498 264.767 334.72 247.077 334.429 244.647C333.651 238.912 332.679 231.719 329.569 226.665C325.972 220.93 319.266 217.626 312.462 217.14C305.561 216.654 298.563 218.987 293.217 223.36C289.718 226.276 283.886 233.08 284.663 238.134C285.247 242.12 291.176 246.591 293.8 249.409C300.409 256.505 297.98 259.615 302.645 263.309Z" fill="#FFDD4D"/>
<path d="M278.735 284.109L281.456 294.412L285.636 325.807C286.219 327.945 287.58 329.694 289.426 330.569C294.383 332.999 306.436 334.263 320.821 328.237C323.057 327.265 327.139 325.223 327.625 322.696L332.096 299.369L332.193 298.883C332.874 295.287 332.388 291.496 330.638 288.288L325.389 278.277V272.931C325.389 266.516 319.752 261.948 314.114 263.795L312.171 264.475L309.06 265.544L295.258 270.307L291.273 271.668L283.4 274.389C279.707 275.75 277.665 280.027 278.735 284.109Z" fill="#48E4F3"/>
<path d="M278.735 284.109L281.456 294.412C282.817 296.161 284.178 297.814 285.636 299.563C288.552 303.16 291.565 306.853 295.647 308.797C302.354 311.907 310.129 309.38 317.03 306.464C321.307 304.715 325.487 302.771 329.569 300.73C330.444 300.341 331.221 299.952 332.096 299.369L332.193 298.883C332.874 295.287 332.388 291.496 330.638 288.288L325.389 278.277V272.931C325.389 266.516 319.752 261.948 314.114 263.795L312.171 264.475L309.06 265.544L295.258 270.307L291.273 271.668L283.4 274.389C279.707 275.75 277.665 280.027 278.735 284.109Z" fill="#83F2FD"/>
<path d="M291.273 271.667C293.217 274.875 295.938 277.597 298.66 280.124C300.798 281.97 303.034 283.817 305.755 284.692C308.477 285.567 311.587 285.372 313.823 283.623C315.572 282.165 316.447 279.832 316.544 277.597C316.641 275.361 316.058 273.028 315.281 270.89C314.503 268.654 313.434 266.516 312.17 264.378L309.06 265.447L295.258 270.21L291.273 271.667Z" fill="#FF8358"/>
<path d="M336.567 295.578L336.372 295.967H336.469C336.469 295.773 336.469 295.675 336.567 295.578Z" fill="#DCEFFE"/>
<path d="M362.616 276.722C366.601 279.735 371.752 279.638 374.182 276.43C376.515 273.32 375.251 268.266 371.266 265.252C367.281 262.239 362.13 262.337 359.7 265.544C357.27 268.752 358.631 273.709 362.616 276.722Z" fill="#FF8358"/>
<path d="M315.183 254.755L314.697 256.505L310.032 272.154L293.022 273.417L293.8 271.084L301.09 249.701L315.183 254.755Z" fill="#FF8358"/>
<path d="M315.183 254.755L314.697 256.505L293.8 271.084L301.09 249.701L315.183 254.755Z" fill="#FF8358"/>
<path d="M331.902 241.245C331.902 251.159 323.445 259.226 312.948 259.226C308.769 259.226 304.881 257.963 301.77 255.824C297.008 252.52 293.995 247.271 293.995 241.245C293.995 231.331 302.451 223.263 312.948 223.263C313.337 223.263 313.726 223.263 314.114 223.263C324.029 223.846 331.902 231.719 331.902 241.245Z" fill="#FF8358"/>
<path d="M300.313 239.787C300.313 242.897 297.786 245.424 294.675 245.424C291.565 245.424 289.038 242.897 289.038 239.787C289.038 236.676 291.565 234.149 294.675 234.149C297.786 234.149 300.313 236.676 300.313 239.787Z" fill="#FFC2B0"/>
<path d="M319.362 246.493C323.25 247.563 327.333 245.716 328.985 242.217C329.277 241.536 328.985 240.759 328.207 240.564L314.891 236.871C314.211 236.676 313.433 237.162 313.433 237.843C312.947 241.731 315.377 245.424 319.362 246.493Z" fill="white"/>
<path d="M331.027 237.066C330.735 236.968 330.444 236.774 330.346 236.482C329.958 235.802 329.374 235.316 328.694 235.122C328.111 234.927 327.625 235.122 327.528 235.608C327.43 235.899 327.139 235.996 326.75 235.705C326.361 235.413 326.167 235.024 326.167 234.733C326.361 233.761 327.236 233.372 328.402 233.761C329.569 234.15 330.735 235.122 331.416 236.288C331.61 236.677 331.61 237.066 331.318 237.066C331.221 237.163 331.124 237.163 331.027 237.066Z" fill="#641E0F"/>
<path d="M317.711 233.08C317.419 232.983 317.127 232.789 317.03 232.497C316.641 231.817 316.058 231.331 315.378 231.136C314.795 230.942 314.309 231.136 314.211 231.622C314.114 231.914 313.823 232.011 313.434 231.719C313.045 231.428 312.851 231.039 312.851 230.747C313.045 229.775 313.92 229.387 315.086 229.775C316.253 230.164 317.419 231.136 318.099 232.303C318.294 232.691 318.294 233.08 318.002 233.08C317.905 233.08 317.808 233.08 317.711 233.08Z" fill="#641E0F"/>
<path d="M292.552 264.961C297.509 266.71 302.563 267.488 307.715 267.78C304.41 259.421 303.243 250.284 304.313 241.439C304.896 236.871 306.062 232.205 308.784 228.415C311.214 225.11 315.102 222.583 319.184 222.388C312.963 217.917 304.215 218.112 297.412 221.611C290.511 225.207 285.456 231.719 282.249 238.815C279.819 244.258 278.264 249.993 277 255.824C281.763 259.518 286.914 262.92 292.552 264.961Z" fill="#FFDD4D"/>
<path d="M286.122 289.552C290.496 290.524 294.675 287.9 295.939 283.623C296.036 283.429 296.036 283.234 296.036 282.943L312.462 206.545L314.212 198.187L316.253 188.856L311.976 185.551C310.13 184.19 307.797 185.162 307.214 187.3L280.096 279.055C278.638 283.72 281.262 288.58 286.122 289.552Z" fill="#FF8358"/>
<path d="M312.657 197.797C317.516 199.255 322.668 196.437 324.029 191.577C325.487 186.717 322.668 181.565 317.808 180.205C312.948 178.747 307.797 181.565 306.436 186.425C305.075 191.285 307.797 196.34 312.657 197.797Z" fill="#FF8358"/>
<path d="M278.832 278.666L301.576 201.783L303.034 203.143C304.783 204.893 307.116 205.768 309.838 205.768C310.615 205.768 311.393 205.671 312.17 205.573L314.017 205.087L297.202 283.137C297.202 283.234 297.202 283.331 297.105 283.429C297.105 283.623 297.007 283.915 297.007 284.012C295.744 288.191 292.05 290.913 287.871 290.913C287.191 290.913 286.51 290.816 285.83 290.718C283.205 290.135 281.067 288.58 279.706 286.344C278.443 284.109 278.054 281.29 278.832 278.666Z" fill="#83F2FD"/>
<path d="M20.0537 561.411C20.0537 561.411 19.0091 552.821 11.0001 549.92C19.1251 546.205 20.2858 535.527 20.2858 535.527C20.2858 535.527 21.2144 546.786 29.8037 549.571C21.2144 552.821 20.0537 561.411 20.0537 561.411Z" fill="#FFFEFD"/>
</svg>
