<svg width="166" height="166" viewBox="0 0 166 166" fill="none" xmlns="http://www.w3.org/2000/svg">
<g filter="url(#filter0_d)">
<circle cx="79" cy="79" r="73" fill="white"/>
</g>
<g clip-path="url(#clip0)">
<path d="M126.187 79.4614C118.033 70.2631 100.453 63.8848 80 63.8848C59.5465 63.8848 41.9672 70.2631 33.8126 79.4614H29V90.9424C29 105.848 51.8598 118 80 118C108.14 118 131 105.915 131 90.9424V79.4614H126.187Z" fill="#E5D723"/>
<path d="M80 108.265C108.167 108.265 131 95.3692 131 79.4615C131 63.5539 108.167 50.6582 80 50.6582C51.8335 50.6582 29 63.5539 29 79.4615C29 95.3692 51.8335 108.265 80 108.265Z" fill="#F8F423"/>
<path opacity="0.33" d="M80 50.5908C78.329 50.5908 76.7248 50.658 75.1206 50.7251L87.2857 64.1532L89.5583 66.6374L96.3761 94.7693L124.65 93.3594L130.799 93.0237C130.933 92.2851 131 91.6137 131 90.8752V79.4613C131 63.549 108.14 50.5908 80 50.5908Z" fill="url(#paint0_linear)"/>
<path d="M96.3762 94.7695L58.5439 72.9488V35.8872L96.3762 57.1708V94.7695Z" fill="#29C5D4"/>
<path d="M96.3762 57.1706L58.5439 35.887L63.6239 33L101.456 54.2836L96.3762 57.1706Z" fill="#48E4F3"/>
<path d="M101.456 91.8153L96.3761 94.7695V57.1707L101.456 54.2837V91.8153Z" fill="#16A6B3"/>
<path d="M70.5754 69.9942L67.768 71.4713L61.2844 68.1814L64.1586 66.6372L70.5754 69.9942Z" fill="#D83B17"/>
<path d="M67.768 81.8112L61.2844 78.0513V68.1816L67.768 71.4715V81.8112Z" fill="#F86544"/>
<path d="M70.5753 79.8643L67.768 81.8114V71.4717L70.5753 69.9946V79.8643Z" fill="#B12F11"/>
<path d="M80.6684 72.8146L77.8611 74.2916L71.3774 71.0018L74.2516 69.4575L80.6684 72.8146Z" fill="#D83B17"/>
<path d="M77.8611 87.7195L71.3774 83.9596V71.0015L77.8611 74.2914V87.7195Z" fill="#F86544"/>
<path d="M80.7353 85.7055L77.8611 87.7197V74.2915L80.6684 72.8145L80.7353 85.7055Z" fill="#B12F11"/>
<path d="M90.962 69.5243L88.1546 71.0685L81.7379 67.7115L84.612 66.2344L90.962 69.5243Z" fill="#D83B17"/>
<path d="M88.2215 93.7625L81.8047 90.0026L81.7379 67.7119L88.1546 71.0689L88.2215 93.7625Z" fill="#F86544"/>
<path d="M90.962 91.6137L88.2215 93.7622L88.1547 71.0686L90.962 69.5244V91.6137Z" fill="#B12F11"/>
<path opacity="0.1" d="M77.3263 64.5559C75.789 64.5559 74.0511 64.1531 72.1795 63.7502C69.7733 63.2131 67.0328 62.5417 64.3591 62.676C63.4233 62.7431 62.6212 62.0046 62.6212 61.0646C62.5544 60.1246 63.2896 59.3189 64.2254 59.3189C67.367 59.1847 70.3748 59.8561 72.9816 60.4603C74.6527 60.8632 76.19 61.1989 77.3932 61.1989C79.2647 61.1989 80.9358 60.796 82.6737 60.3261C85.2136 59.6547 88.1546 58.9161 92.0983 59.3861C93.0341 59.5204 93.7025 60.3261 93.5688 61.266C93.4351 62.206 92.633 62.8774 91.6972 62.7431C88.3552 62.4074 86.0157 62.9445 83.4757 63.6159C81.5373 64.0188 79.5989 64.5559 77.3263 64.5559Z" fill="black"/>
<path d="M77.059 63.616C75.5216 63.616 73.7837 63.2131 71.9122 62.8103C69.5059 62.2732 66.7654 61.6018 64.0917 61.736C63.156 61.8032 62.3539 61.0646 62.3539 60.1247C62.287 59.1847 63.0223 58.379 63.9581 58.379C67.0996 58.2447 70.1075 58.9161 72.7143 59.5204C74.3853 59.9232 75.9227 60.2589 77.1258 60.2589C78.9974 60.2589 80.6684 59.8561 82.4063 59.3861C84.9463 58.7147 87.8873 57.9762 91.8309 58.4461C92.7667 58.5804 93.4351 59.3861 93.3014 60.3261C93.1677 61.1989 92.2988 61.8703 91.363 61.8032C88.021 61.4675 85.6815 62.0046 83.1415 62.676C81.27 63.146 79.3316 63.616 77.059 63.616Z" fill="white"/>
<g opacity="0.15">
<path opacity="0.15" d="M67.768 81.8113L71.3774 81.677V80.3342L70.5753 79.8643L67.768 81.8113Z" fill="#232222"/>
<path opacity="0.15" d="M77.8611 87.7198L81.7379 87.5184V86.3098L80.7353 85.7056L77.8611 87.7198Z" fill="#232222"/>
<path opacity="0.15" d="M88.2215 93.7623L94.2372 93.4937L90.962 91.6138L88.2215 93.7623Z" fill="#232222"/>
</g>
</g>
<defs>
<filter id="filter0_d" x="0" y="0" width="166" height="166" filterUnits="userSpaceOnUse" color-interpolation-filters="sRGB">
<feFlood flood-opacity="0" result="BackgroundImageFix"/>
<feColorMatrix in="SourceAlpha" type="matrix" values="0 0 0 0 0 0 0 0 0 0 0 0 0 0 0 0 0 0 127 0"/>
<feOffset dx="4" dy="4"/>
<feGaussianBlur stdDeviation="5"/>
<feColorMatrix type="matrix" values="0 0 0 0 0 0 0 0 0 0 0 0 0 0 0 0 0 0 0.25 0"/>
<feBlend mode="normal" in2="BackgroundImageFix" result="effect1_dropShadow"/>
<feBlend mode="normal" in="SourceGraphic" in2="effect1_dropShadow" result="shape"/>
</filter>
<linearGradient id="paint0_linear" x1="75.1378" y1="72.6844" x2="131.004" y2="72.6844" gradientUnits="userSpaceOnUse">
<stop offset="0.2803"/>
<stop offset="1" stop-opacity="0"/>
</linearGradient>
<clipPath id="clip0">
<rect width="102" height="85" fill="white" transform="translate(29 33)"/>
</clipPath>
</defs>
</svg>
