<svg width="533" height="486" viewBox="0 0 533 486" fill="none" xmlns="http://www.w3.org/2000/svg">
<g clip-path="url(#clip0)">
<path opacity="0.2" d="M275.093 342.308C369.585 342.308 446.186 265.68 446.186 171.154C446.186 76.6283 369.585 0 275.093 0C180.601 0 104 76.6283 104 171.154C104 265.68 180.601 342.308 275.093 342.308Z" fill="#F8F423"/>
<path d="M277.139 453C295.832 453 310.985 444.254 310.985 433.466C310.985 422.678 295.832 413.932 277.139 413.932C258.446 413.932 243.292 422.678 243.292 433.466C243.292 444.254 258.446 453 277.139 453Z" fill="#16A6B3"/>
<path d="M228.972 376.725V414.118C228.972 429.187 250.545 441.466 277.325 441.466C304.104 441.466 325.677 429.187 325.677 414.118V376.725H228.972Z" fill="#29C5D4"/>
<path d="M228.972 391.422C241.06 398.491 257.984 402.77 276.767 402.77C296.108 402.77 313.403 398.119 325.677 390.678V376.725H228.972V391.422Z" fill="#16A6B3"/>
<path d="M332.558 331.89C320.47 321.472 300.013 314.774 276.767 314.774C253.52 314.774 232.878 321.658 220.976 331.89H209.631V353.098C209.631 374.306 239.759 391.608 276.767 391.608C313.775 391.608 343.902 374.306 343.902 353.098V331.89H332.558Z" fill="#29C5D4"/>
<path d="M276.581 370.214C313.659 370.214 343.716 352.972 343.716 331.704C343.716 310.436 313.659 293.194 276.581 293.194C239.503 293.194 209.445 310.436 209.445 331.704C209.445 352.972 239.503 370.214 276.581 370.214Z" fill="#48E4F3"/>
<path d="M275.837 79.2517C275.465 79.2517 275.279 79.2517 275.093 79.2517C274.907 79.2517 274.535 79.2517 274.349 79.2517C148.075 81.1121 125.573 221.198 203.122 277.381C213.351 284.823 217.256 302.496 218.558 312.914C222.277 352.912 264.121 354.586 274.907 354.586H275.093H275.279C286.065 354.586 327.909 352.912 331.628 312.914C332.93 302.31 336.835 284.823 347.064 277.381C424.613 221.198 402.111 81.1121 275.837 79.2517Z" fill="#F8F423"/>
<path opacity="0.32" d="M285.321 294.31C284.206 273.66 283.834 256.173 284.763 242.22C302.989 243.336 311.915 237.755 316.193 232.174C322.516 224.175 321.028 213.756 318.796 206.315C316.378 198.501 304.29 189.386 292.202 197.199C284.763 202.036 280.858 215.059 278.998 235.151C277.883 234.965 276.767 234.779 275.837 234.593C273.419 234.221 270.444 233.29 267.282 231.988C265.794 206.315 261.331 182.502 250.545 177.107C244.966 174.317 236.597 173.386 229.53 179.34C223.021 185.107 223.021 194.781 225.067 202.408C228.972 215.989 246.454 229.198 260.959 236.267C261.889 255.615 261.517 277.009 260.401 295.241C244.966 298.775 233.808 307.519 233.808 317.937C233.808 331.332 252.405 342.308 275.279 342.308C298.153 342.308 316.75 331.518 316.75 317.937C316.378 306.589 303.175 297.101 285.321 294.31ZM295.922 202.408C300.571 198.687 310.055 202.036 312.659 208.919C314.705 214.501 315.635 222.314 310.985 228.267C306.336 234.034 297.595 236.639 285.135 235.895C286.809 218.035 290.529 206.873 295.922 202.408ZM231.018 200.734C229.53 195.525 229.716 188.083 234.365 183.991C237.899 180.828 243.664 181.014 247.383 182.874C254.822 186.595 258.728 205.385 260.401 228.825C247.755 222.128 233.993 211.152 231.018 200.734ZM266.538 294.124C267.282 281.288 268.026 260.08 267.282 239.244C269.886 240.174 272.303 240.918 274.349 241.29C275.651 241.476 276.953 241.662 278.254 241.848C277.325 255.801 277.511 273.102 278.812 293.752C277.511 293.752 276.395 293.566 275.093 293.566C272.117 293.566 269.328 293.752 266.538 294.124Z" fill="#F86544"/>
<path d="M210.151 157.508C210.151 157.508 212.237 144.258 224.819 140.4C212.657 133.927 211.489 117.45 211.489 117.45C211.489 117.45 209.39 134.94 196.126 138.504C209.07 144.102 210.151 157.508 210.151 157.508Z" fill="#FFFEFD"/>
</g>
<g opacity="0.18">
<g opacity="0.18">
<g opacity="0.18">
<g opacity="0.18">
<g opacity="0.18">
<g opacity="0.18">
<g opacity="0.18">
<g opacity="0.18">
<g opacity="0.18">
<g opacity="0.18">
<g opacity="0.18">
<g opacity="0.18">
<g opacity="0.18">
<path opacity="0.18" d="M477.823 466.359C451.34 466.359 429.871 453.971 429.871 438.689C429.871 423.406 451.34 411.018 477.823 411.018C504.307 411.018 525.776 423.406 525.776 438.689C525.776 453.971 504.307 466.359 477.823 466.359Z" fill="#647DDD"/>
</g>
</g>
</g>
</g>
</g>
</g>
</g>
</g>
</g>
</g>
</g>
</g>
</g>
<path d="M413.886 226.334C407.714 226.334 402.492 221.59 402.175 215.423C401.701 208.941 406.607 203.248 413.095 202.932C416.102 202.774 421.958 200.402 427.497 196.449C430.187 194.552 432.403 192.022 434.144 189.018C434.144 188.859 434.302 188.859 434.302 188.701L450.602 162.77C454.084 157.235 461.364 155.654 466.903 159.133C472.442 162.612 474.025 169.885 470.543 175.419L454.401 201.035C451.077 206.727 446.646 211.629 441.423 215.423C432.719 221.748 422.749 225.859 414.678 226.492C414.361 226.334 414.045 226.334 413.886 226.334Z" fill="#D4F7FA"/>
<path d="M488.901 424.616C488.743 424.932 488.743 425.248 488.585 425.564L488.901 424.616Z" fill="#641E0F"/>
<path d="M488.901 424.616C488.901 424.458 488.901 424.458 489.059 424.458C489.218 423.825 489.376 423.193 489.534 422.56L488.901 424.616Z" fill="#641E0F"/>
<path d="M506.31 426.513C506.151 422.718 504.569 420.188 500.454 419.714C497.764 419.398 494.757 419.24 492.383 420.505C490.8 421.295 489.534 422.718 489.059 424.458C487.477 428.885 482.729 466.517 492.066 461.774C502.195 456.398 506.626 436.475 506.31 426.513Z" fill="#641E0F"/>
<path d="M471.968 410.227C464.372 401.372 455.826 413.864 451.711 419.082C449.02 422.56 439.367 431.889 440.474 436.791C440.791 438.53 441.108 438.372 442.69 438.847C444.431 439.321 446.172 439.005 447.913 438.689C456.933 436.475 464.055 431.415 468.011 423.667C468.17 425.881 468.17 427.936 468.17 430.15C468.17 430.624 468.645 430.941 469.119 430.624C469.911 430.15 470.86 429.518 471.651 428.885C474.658 426.671 473.392 423.509 474.184 419.872C474.975 416.71 474.342 412.915 471.968 410.227Z" fill="#641E0F"/>
<path d="M502.828 420.979C503.778 422.877 503.778 425.09 503.461 427.304C502.512 433.629 498.872 442.167 493.333 446.12C492.858 446.436 492.225 446.911 491.592 446.911C490.326 446.911 489.693 445.804 489.376 444.697C488.585 442.167 488.901 436.949 489.218 434.419C489.693 431.099 490.009 427.62 490.484 424.3L478.615 341.287L476.557 309.821L474.816 278.829L471.493 345.082L470.385 409.911C470.385 410.543 470.543 409.278 470.385 409.911C474.5 416.71 459.94 427.146 455.192 428.885C452.818 429.676 448.545 430.15 449.178 426.197C449.337 424.458 450.603 423.193 451.552 421.77C452.977 419.714 457.25 413.547 456.933 411.018C456.775 410.227 447.279 339.389 447.279 339.389L444.905 242.462L468.961 252.265L508.051 246.573L501.562 264.915L502.037 341.445L502.828 420.979Z" fill="#FF8358"/>
<path d="M450.761 224.278L446.172 231.236C442.532 236.77 440.791 243.095 440.791 249.577L442.057 343.975C442.057 343.975 485.42 365.163 507.893 341.129L508.842 273.612C508.842 273.612 514.223 235.505 498.081 226.65L450.761 224.278Z" fill="#175E65"/>
<path d="M469.12 141.74C469.12 141.74 469.12 141.898 469.12 141.74C469.278 141.74 469.278 141.582 469.278 141.424C469.12 141.582 469.12 141.74 469.12 141.74Z" fill="#3772CE"/>
<path d="M506.31 180.005L502.986 192.496L496.498 230.287C495.865 232.817 491.275 234.872 489.06 235.979C483.046 238.983 471.335 240.406 454.084 233.133C451.394 232.026 449.495 229.496 448.862 226.492L442.057 198.505L441.899 197.872C441.107 193.603 441.74 189.017 443.639 185.222L449.97 173.205V166.722C449.97 159.133 456.775 153.599 463.58 155.654L469.752 157.71L486.369 163.402L500.613 168.304C505.044 170.043 507.576 175.103 506.31 180.005Z" fill="#A2DEE4"/>
<path d="M506.31 180.005L502.986 192.496C501.246 194.552 499.663 196.607 497.922 198.663C494.44 202.932 490.8 207.517 485.894 209.731C477.823 213.526 468.486 210.364 460.257 206.885C455.192 204.671 450.128 202.458 445.064 200.086C444.114 199.611 443.006 199.137 442.057 198.505L441.899 197.872C441.107 193.603 441.74 189.017 443.639 185.222L449.97 173.205V166.722C449.97 159.133 456.775 153.599 463.58 155.654L469.752 157.71L486.369 163.402L500.613 168.304C505.044 170.043 507.576 175.103 506.31 180.005Z" fill="#D4F7FA"/>
<path d="M486.369 163.56C481.78 167.513 476.874 170.992 471.81 174.312C470.069 175.419 468.17 176.526 466.112 176.21C465.638 176.21 465.163 176.052 464.846 175.736C464.213 175.103 464.371 173.996 464.53 173.047C465.638 167.83 467.378 162.77 469.594 158.026L486.369 163.56Z" fill="#FF8358"/>
<path d="M486.369 141.74V163.402L469.119 164.983V141.74H486.369Z" fill="#FF8358"/>
<path d="M486.369 149.488L469.277 162.453L469.119 163.718V148.223L486.369 149.488Z" fill="#FF8358"/>
<path d="M500.771 117.073C500.296 100.945 485.895 104.423 472.126 105.53C470.86 105.688 469.594 105.688 468.328 106.163C467.22 106.479 466.429 107.111 465.479 107.902C457.408 113.911 451.869 123.082 452.977 132.411C455.034 149.804 479.723 156.445 492.858 143.637C499.98 136.68 500.929 126.56 500.771 117.073Z" fill="#18828C"/>
<path d="M452.502 138.103C452.66 143.163 453.61 148.223 456.459 151.859C459.782 155.971 465.004 157.71 470.069 157.868C472.759 157.868 475.766 157.552 478.14 156.129C482.729 153.282 484.945 147.432 486.053 141.74C486.528 139.526 486.844 137.471 487.002 135.257C487.161 132.727 487.002 130.355 486.211 127.983C484.787 122.765 481.147 118.654 476.874 115.966C472.601 113.278 467.695 112.013 462.789 111.539C460.415 111.223 457.883 111.223 455.667 112.329C454.243 113.12 453.135 114.701 452.819 116.282C452.66 116.915 452.66 117.547 452.819 118.022C452.66 122.607 452.502 127.193 452.344 131.778C452.502 133.834 452.344 136.047 452.502 138.103Z" fill="#FF8358"/>
<path d="M445.539 129.881C452.502 129.09 459.149 127.667 465.796 125.453C470.544 123.872 475.291 121.658 478.773 118.18C482.255 114.543 484.47 109.325 483.046 104.581C474.975 103.475 466.587 102.368 458.991 105.372C449.97 109.009 443.798 118.97 444.431 128.616L445.539 129.881Z" fill="#18828C"/>
<path d="M484.787 105.847C489.06 97.7824 502.195 96.5174 507.893 103.791C513.59 110.906 509.475 123.398 500.771 125.928C494.282 127.667 486.686 124.03 484.154 117.705C481.622 111.381 484.787 103.475 490.801 100.47L484.787 105.847Z" fill="#18828C"/>
<path d="M464.055 122.449C465.795 126.56 468.011 130.513 471.335 133.518C474.658 136.522 478.931 138.577 483.362 138.735C485.42 138.735 487.793 138.261 489.059 136.68C489.851 135.889 490.167 134.782 490.484 133.676C491.592 129.406 491.433 124.663 489.693 120.552C487.952 116.441 484.312 113.12 480.039 112.013C475.449 110.748 470.543 112.171 466.587 114.701C463.738 116.441 461.206 119.603 461.997 122.765L464.055 122.449Z" fill="#18828C"/>
<path d="M488.408 137.581L488.967 138.537L475.849 146.195L475.291 145.24L488.408 137.581Z" fill="#641E0F"/>
<path d="M482.097 144.428C482.414 144.744 482.889 144.744 483.205 144.586C483.205 144.428 483.205 144.27 483.205 144.27L482.097 144.428Z" fill="#FF8358"/>
<path d="M489.851 136.68C488.111 136.047 486.37 137.945 485.578 140.158C485.262 141.265 484.945 142.53 484.471 143.479C484.154 143.953 483.679 144.428 483.204 144.586C482.73 146.325 483.679 148.539 485.104 148.855C486.528 149.329 488.111 148.381 489.377 147.116C490.643 145.851 491.909 143.953 492.067 141.74C492.383 139.684 491.434 137.154 489.851 136.68Z" fill="#FF8358"/>
<path d="M461.206 137.47C461.522 136.364 462.155 136.047 463.105 136.522C463.896 136.996 464.687 138.103 465.004 139.684L465.479 139.526C465.004 137.629 464.213 136.047 463.105 135.573C461.997 134.94 461.206 135.415 460.731 136.838L461.206 137.47Z" fill="#FAB300"/>
<path d="M461.206 137.47C461.522 136.364 462.155 136.047 463.105 136.522C463.896 136.996 464.687 138.103 465.004 139.684L465.479 139.526C465.004 137.629 464.213 136.047 463.105 135.573C461.997 134.94 461.206 135.415 460.731 136.838L461.206 137.47Z" fill="#641E0F"/>
<path d="M472.601 150.911C473.234 150.911 473.709 150.753 474.184 150.436C475.291 149.804 475.924 148.381 475.924 146.483C475.924 143.005 473.392 138.577 470.385 136.838C468.803 135.889 467.22 135.731 466.112 136.522C465.005 137.154 464.371 138.577 464.371 140.475C464.371 143.953 466.904 148.381 469.911 150.12C470.86 150.594 471.81 150.911 472.601 150.911ZM467.853 137.312C468.486 137.312 469.119 137.471 469.911 137.945C472.759 139.526 474.975 143.479 474.975 146.641C474.975 148.065 474.5 149.171 473.709 149.646C472.917 150.12 471.81 149.962 470.544 149.33C467.695 147.748 465.479 143.795 465.479 140.633C465.479 139.21 465.954 138.103 466.745 137.629C467.062 137.312 467.378 137.312 467.853 137.312Z" fill="#641E0F"/>
<path d="M458.516 142.847C459.149 142.847 459.624 142.688 460.098 142.372C461.206 141.74 461.839 140.317 461.839 138.419C461.839 134.941 459.307 130.513 456.3 128.774C454.718 127.825 453.135 127.667 452.027 128.458C450.919 129.09 450.286 130.513 450.286 132.411C450.286 135.889 452.819 140.317 455.825 142.056C456.775 142.53 457.725 142.847 458.516 142.847ZM453.768 129.09C454.401 129.09 455.034 129.248 455.825 129.723C458.674 131.304 460.89 135.257 460.89 138.419C460.89 139.842 460.415 140.949 459.624 141.423C458.832 141.898 457.725 141.74 456.458 141.107C453.61 139.526 451.394 135.573 451.394 132.411C451.394 130.988 451.869 129.881 452.66 129.406C452.977 129.248 453.293 129.09 453.768 129.09Z" fill="#641E0F"/>
<path d="M505.834 204.83L510.74 194.394L506.626 192.496C505.993 192.18 505.36 192.338 504.885 192.496L471.651 211.629C471.017 211.945 470.701 212.578 470.701 213.21V264.283C470.701 265.073 471.176 265.706 471.809 266.022L473.708 266.971C474.816 267.445 476.082 266.971 476.557 265.864L479.089 260.646L505.676 245.308L505.834 204.83Z" fill="white"/>
<path d="M510.741 247.68L478.614 266.18C477.348 266.97 475.766 266.022 475.766 264.441V217.479C475.766 215.74 476.715 214 478.298 213.21L510.741 194.394V247.68Z" fill="#18828C"/>
<path d="M522.769 232.659C518.971 232.659 515.331 230.603 513.432 226.808L491.908 182.535C489.376 177.475 491.592 171.308 496.656 168.778C501.72 166.248 507.893 168.462 510.425 173.522L531.948 217.795C534.48 222.855 532.264 229.022 527.2 231.552C525.776 232.342 524.193 232.659 522.769 232.659Z" fill="#D4F7FA"/>
<path d="M405.974 223.646C396.795 223.646 380.969 222.539 368.467 215.424C364.194 213.052 362.77 207.676 365.144 203.406C367.518 199.137 372.898 197.714 377.171 200.086C390.465 207.676 411.355 205.778 411.513 205.778C416.419 205.304 420.692 208.941 421.167 213.842C421.642 218.744 418.002 223.013 413.254 223.488C412.938 223.33 410.089 223.646 405.974 223.646Z" fill="#FF8358"/>
<path d="M473.709 251.949C468.803 251.949 464.846 247.996 464.846 243.094C464.846 238.193 468.803 234.24 473.709 234.24C509 234.24 513.906 220.958 514.065 220.958C514.856 216.214 519.445 212.894 524.193 213.684C528.941 214.475 532.264 219.06 531.473 223.804C530.998 226.65 525.301 251.949 473.709 251.949Z" fill="#FF8358"/>
<path d="M480.04 239.616C478.457 240.722 476.241 240.248 475.134 238.667L470.228 231.868C469.12 230.287 469.436 228.073 471.019 226.966C472.602 225.859 474.817 226.334 475.925 227.915L480.831 234.872C481.939 236.453 481.622 238.667 480.04 239.616Z" fill="#FF8358"/>
<path d="M385.242 204.671C385.242 210.364 383.185 214.949 380.653 214.949C378.121 214.949 376.063 210.364 376.063 204.671C376.063 198.979 378.121 194.394 380.653 194.394C383.185 194.552 385.242 199.137 385.242 204.671Z" fill="#FF8358"/>
<path d="M106.253 302.033C102.655 302.033 99.2208 299.743 97.7488 296.145L75.0153 234.65C73.2163 230.07 75.6695 224.837 80.4125 223.038C84.9919 221.239 90.2255 223.692 92.0246 228.435L114.758 289.93C116.557 294.509 114.104 299.743 109.361 301.542C108.216 301.869 107.235 302.033 106.253 302.033Z" fill="#FF8358"/>
<path d="M95.2951 226.636L83.356 170.538L83.1924 170.211C80.9027 165.632 75.5055 162.851 70.2719 163.833C67.0009 164.323 64.2206 166.122 62.4215 168.739C60.6225 171.192 59.9683 174.136 60.6225 177.08L72.5616 233.014L72.7252 233.341C74.6878 237.43 78.9401 239.883 83.5195 239.883C84.1737 239.883 84.8279 239.883 85.4821 239.72C85.6457 239.72 85.8092 239.72 85.9728 239.556C92.1877 238.575 96.44 232.524 95.2951 226.636Z" fill="#D4F7FA"/>
<path d="M52.445 434.181C50.1553 434.181 48.0292 435.98 47.2114 438.106C46.2301 440.233 46.2301 442.686 46.2301 444.976C46.2301 446.938 46.3937 449.228 47.7021 450.7C48.6834 451.681 49.9918 452.008 51.3002 452.335C53.7534 452.99 56.0431 453.644 58.4964 453.807C61.2767 453.971 64.0571 453.644 66.8375 454.134C68.6365 454.462 70.272 454.952 72.0711 455.443C76.9776 456.588 82.2112 456.424 87.1177 455.116C88.2625 454.789 89.2438 454.462 90.0616 453.48C91.2064 452.008 90.8793 449.719 89.5709 448.247C88.4261 446.775 86.627 445.957 84.9915 445.139C79.9215 442.849 74.6879 440.396 69.6178 438.106C64.5477 435.817 59.4777 433.527 53.917 433.364C52.1179 433.364 49.8282 434.181 49.9918 435.817L52.445 434.181Z" fill="#175E65"/>
<path d="M56.5334 442.849H56.0428C52.6082 442.522 50.155 439.578 50.4821 436.144L51.2998 425.84C51.6269 422.406 54.5708 419.952 58.0054 420.279H58.496C61.9306 420.607 64.3838 423.55 64.0567 426.985L63.239 437.289C62.7483 440.56 59.8044 443.013 56.5334 442.849Z" fill="#D4F7FA"/>
<path d="M33.8003 461.985C34.7816 463.784 35.7629 465.583 36.7442 467.218C37.7255 469.017 38.7068 470.816 39.361 472.779C40.3423 475.559 42.3049 481.12 39.8517 483.737C36.2536 487.662 30.2022 484.228 27.2583 481.611C22.8425 477.522 18.5901 473.106 14.8285 468.363C13.193 466.401 11.5575 464.111 11.0668 461.658C9.59488 453.807 14.0107 442.849 23.6602 445.466C27.0948 446.447 28.5667 448.901 29.3845 452.008C30.3658 455.606 32.0013 458.877 33.8003 461.985Z" fill="#175E65"/>
<path d="M21.8612 458.387H21.3706C17.936 458.387 15.1556 455.606 15.1556 452.172V441.868C15.1556 438.434 17.936 435.653 21.3706 435.653H21.8612C25.2958 435.653 28.0761 438.434 28.0761 441.868V452.172C28.0761 455.606 25.2958 458.387 21.8612 458.387Z" fill="#D4F7FA"/>
<path d="M52.9353 242.5L20.5524 253.622L7.6319 268.341L11.5571 361.238V442.359C11.5571 446.611 14.9917 450.046 19.244 450.046H24.6411C28.7299 450.046 32.0009 446.938 32.328 443.013L40.5055 346.191L43.1223 309.556L49.8279 306.776L52.9353 350.771L49.1737 426.331C49.0101 430.91 52.7718 434.508 57.1876 434.181L60.9493 433.854C64.5474 433.527 67.3278 430.91 67.8184 427.476L80.0847 343.901V256.893L52.9353 242.5Z" fill="#16A6B3"/>
<path d="M8.28667 283.552C13.1932 288.131 22.5156 288.131 32.165 286.332C32.165 286.332 32.165 286.332 32.3286 286.332C42.7958 284.206 53.5901 279.79 59.6415 276.028C60.1321 275.701 61.7676 274.883 64.2209 273.739C66.6741 272.594 69.6181 271.122 72.7255 269.486C81.0666 265.397 84.9918 255.748 82.2114 247.08C76.1601 229.089 73.2162 209.136 78.9404 192.127C80.2488 188.529 82.0479 184.767 82.7021 181.169C82.8656 180.515 83.6834 180.024 83.6834 179.37V177.735L83.0292 180.024C85.1553 168.739 83.1927 158.108 70.4358 150.585C67.9826 149.113 64.548 148.623 60.7863 148.623C59.1508 148.623 57.1882 148.623 55.3892 148.95C42.9594 151.239 33.4734 154.347 26.2772 158.436C26.1137 158.599 25.9501 158.599 25.7866 158.763C25.7866 158.763 25.7866 158.763 25.623 158.763C18.9174 162.688 14.1745 167.594 10.5764 173.319C5.66987 181.333 3.21661 191.309 1.41756 203.412C-1.19925 221.402 -0.872146 275.211 8.28667 283.552Z" fill="#D4F7FA"/>
<path d="M25.6226 158.763L32.9824 165.632C32.0011 162.197 29.3843 159.907 26.1133 158.436C25.9497 158.599 25.7862 158.763 25.6226 158.763Z" fill="#D4F7FA"/>
<path d="M8.28655 283.552C13.1931 288.131 22.5154 288.131 32.1649 286.332C29.8752 276.519 24.9687 267.033 26.1135 256.893C26.9313 249.697 30.8565 242.337 28.7303 235.468C28.0761 233.178 26.7677 231.216 25.7864 229.089C20.7164 217.968 24.478 205.211 27.749 193.435C30.8565 181.823 32.8191 168.412 25.6229 158.926C18.9173 162.851 14.1744 167.758 10.5763 173.482C5.66975 181.496 3.21649 191.473 1.41744 203.576C-1.19937 221.403 -0.872268 275.211 8.28655 283.552Z" fill="#D4F7FA"/>
<path d="M33.8001 165.632C37.7253 170.048 43.6131 176.59 47.0476 180.515C48.5196 182.15 51.3 181.987 52.6084 180.188L60.2952 169.557L71.2531 171.519C72.5615 171.683 73.8699 170.702 73.8699 169.393V165.959C73.8699 158.435 68.6363 151.893 61.113 150.258C58.6597 149.767 56.0429 149.44 53.4261 149.44C46.0663 149.44 39.5243 151.566 34.9449 154.837C31.3468 157.291 30.8562 162.361 33.8001 165.632Z" fill="#A2DEE4"/>
<path d="M42.7954 157.618C42.7954 159.417 43.6132 161.052 44.9216 162.197C47.0477 164.323 50.4823 165.631 54.2439 165.631C58.0056 165.631 61.2766 164.323 63.4028 162.36C64.8747 161.052 65.6925 159.417 65.6925 157.618C65.6925 155.818 64.8747 154.183 63.4028 152.875C63.2392 152.711 63.0757 152.547 62.9121 152.547C61.2766 151.239 59.1504 150.258 56.5336 149.931C56.2065 149.931 55.7159 149.767 55.3888 149.767C55.0617 149.767 54.571 149.767 54.2439 149.767C50.3187 149.767 46.8842 151.075 44.9216 153.202C43.4496 154.346 42.7954 155.818 42.7954 157.618Z" fill="#175E65"/>
<path d="M44.7582 133.085V162.197C46.8844 164.323 50.319 165.631 54.0806 165.631C57.8423 165.631 61.1133 164.323 63.2394 162.36V133.085H44.7582Z" fill="#FF8358"/>
<g opacity="0.71">
<g opacity="0.71">
<g opacity="0.71">
<g opacity="0.71">
<g opacity="0.71">
<g opacity="0.71">
<g opacity="0.71">
<path opacity="0.71" d="M62.5853 161.543L59.1508 160.071C53.59 157.781 49.6648 152.875 48.6835 146.987L47.3751 139.627L45.7396 137.174H47.2116L54.4078 137.501C57.5152 140.608 60.7863 143.552 63.4031 146.987L62.5853 161.543Z" fill="#FF8358"/>
</g>
</g>
</g>
</g>
</g>
</g>
</g>
<path d="M43.6138 130.632C43.4503 131.777 44.5951 132.758 45.74 133.903C46.0671 134.23 46.5577 134.721 46.8848 135.048C46.8848 135.048 46.8848 135.048 47.0484 135.211C47.3755 135.538 47.539 135.865 47.7026 136.029C48.0297 136.356 48.1932 136.847 48.1932 137.174C48.1932 138.646 48.5203 139.954 48.6839 141.426C49.6652 145.842 52.1184 149.767 55.2259 152.711C55.8801 153.365 56.6978 153.856 57.5156 154.51C58.9875 155.655 60.7866 156.473 62.5857 156.963C63.2399 157.127 63.8941 157.291 64.7118 157.454C69.1277 158.108 74.0342 156.963 78.6136 153.365C81.0668 151.403 82.7023 148.786 83.8472 145.842C84.5014 144.207 84.9921 142.244 85.4827 140.445C85.9734 138.319 86.3005 136.193 86.464 134.23C86.9547 130.959 87.4453 127.688 87.7724 124.417C87.936 123.109 88.0995 121.8 88.2631 120.492C88.4266 120.001 88.5902 119.347 88.5902 118.693C88.5902 117.057 87.6089 115.258 86.1369 114.277C84.0107 112.641 81.2304 112.151 78.6136 111.987C73.2164 111.66 67.6557 111.824 62.5857 113.623C57.5156 115.422 52.7726 119.02 50.3194 123.763C49.3381 125.562 43.9409 128.179 43.6138 130.632Z" fill="#FF8358"/>
<path d="M41.4875 111.987C42.7959 107.081 45.0856 103.319 48.5201 100.702C51.6276 98.2488 55.3892 96.7769 59.8051 96.2862C62.5854 95.9591 65.3658 95.7956 68.1462 96.4498C71.9078 97.4311 75.1788 99.8843 78.6134 101.52C82.2115 103.319 86.3003 104.137 89.7348 106.263C93.1694 108.225 96.2768 111.823 95.9497 115.912C95.6226 120.001 91.861 123.272 87.7722 124.09C83.6834 125.071 79.5947 124.253 75.5059 123.436C72.7256 122.945 67.1649 120.655 64.3845 121.473C60.2957 122.781 60.6228 128.833 58.1696 131.45C57.5154 132.267 56.3705 132.758 55.2257 132.431C52.7724 131.777 52.4453 128.179 50.3192 126.87C48.8472 126.052 46.7211 126.707 45.7398 128.179C44.7585 129.65 44.7585 131.613 45.5762 133.249C46.394 134.884 48.6837 135.538 49.3379 136.847C49.9921 137.992 49.3379 139.627 48.8472 141.099C48.3566 142.407 47.2117 143.552 45.7398 143.879C35.2725 145.678 40.3426 116.566 41.4875 111.987Z" fill="#641E0F"/>
<path d="M40.5056 278.645L95.1314 248.879L146.486 279.626L87.1175 313.481L39.1972 284.86C38.543 284.369 38.0524 283.715 38.0524 282.734C38.0524 280.935 39.0337 279.463 40.5056 278.645Z" fill="#29C5D4"/>
<path d="M89.4079 310.701L148.777 276.846L99.8751 247.407C98.4032 246.426 96.4406 246.426 94.8051 247.407L40.3428 278.645C39.3615 279.299 39.3615 280.771 40.3428 281.262L89.4079 310.701Z" fill="white"/>
<path d="M116.557 260.818L68.8004 286.495L88.4265 299.743L134.711 273.248L116.557 260.818Z" fill="#A2DEE4"/>
<path d="M63.4029 270.467L86.2999 256.402L98.0756 263.271L74.8514 277.663L63.4029 270.467Z" fill="#A2DEE4"/>
<path d="M84.1738 307.43L91.2065 254.767C91.37 253.622 92.1878 252.477 93.3326 251.823L121.463 235.795L147.631 220.258C148.286 219.767 149.103 219.767 149.758 219.767C150.412 219.767 154.991 222.384 154.991 222.384L152.047 224.019L145.178 274.229C145.015 275.374 144.197 276.519 143.052 277.173L90.7158 310.537C88.4261 312.009 84.3374 308.902 84.1738 307.43Z" fill="#29C5D4"/>
<path d="M151.393 222.383L125.061 237.921L96.9304 253.949C95.7855 254.603 94.9678 255.748 94.8042 256.893L87.7716 308.084C87.4445 310.701 89.8977 312.173 92.351 310.864L146.813 279.299C147.958 278.645 148.776 277.5 148.939 276.355L155.972 225.164C156.299 222.547 153.682 220.911 151.393 222.383Z" fill="#175E65"/>
<path d="M10.0851 183.131V241.519C10.0851 249.206 13.8468 256.566 20.0617 261.145L62.9119 270.467C64.8745 271.939 67.0007 272.594 69.2904 272.594C72.5614 272.594 75.8324 271.122 77.9585 268.178C81.3931 263.435 80.4118 256.729 75.6688 253.131L32.8186 243.809C32.0009 243.318 31.6738 242.337 31.6738 241.519V183.131C31.6738 177.244 26.9308 172.337 20.8795 172.337C14.8281 172.501 10.0851 177.244 10.0851 183.131Z" fill="#FF8358"/>
<path d="M19.7349 169.066C12.7022 169.066 6.97797 176.099 6.97797 184.767V240.701L7.14152 240.865C10.0854 245.608 13.52 247.897 18.59 247.897C19.4078 247.897 20.062 247.897 20.8797 247.734C23.9872 247.407 28.2395 245.771 32.1647 243.154L32.4918 242.991V184.767C32.4918 176.099 26.7676 169.066 19.7349 169.066Z" fill="#D4F7FA"/>
<path d="M76.8139 278.972C75.0149 278.972 73.3794 277.5 73.3794 275.537V261.309C73.3794 259.51 74.8513 257.874 76.8139 257.874C78.613 257.874 80.2485 259.346 80.2485 261.309V275.537C80.2485 277.5 78.7766 278.972 76.8139 278.972Z" fill="#FF8358"/>
<path d="M113.286 290.911C116.394 285.35 124.081 280.771 130.459 280.771C136.837 280.771 139.454 285.187 136.347 290.584C133.239 296.145 125.552 300.724 119.174 300.724C112.796 300.724 110.179 296.308 113.286 290.911Z" fill="#FF8358"/>
<defs>
<clipPath id="clip0">
<rect width="342" height="453" fill="white" transform="translate(104)"/>
</clipPath>
</defs>
</svg>
