<svg width="166" height="166" viewBox="0 0 166 166" fill="none" xmlns="http://www.w3.org/2000/svg">
<g filter="url(#filter0_d)">
<circle cx="79" cy="79" r="73" fill="white"/>
</g>
<g clip-path="url(#clip0)">
<path d="M121.376 80.4061C113.541 71.5182 96.6514 65.355 77 65.355C57.3486 65.355 40.4587 71.5182 32.6239 80.4061H28V91.4998C28 105.902 49.9633 117.645 77 117.645C104.037 117.645 126 105.967 126 91.4998V80.4061H121.376Z" fill="#D83B17"/>
<path d="M77 108.238C104.062 108.238 126 95.7772 126 80.4063C126 65.0353 104.062 52.5747 77 52.5747C49.938 52.5747 28 65.0353 28 80.4063C28 95.7772 49.938 108.238 77 108.238Z" fill="#F86544"/>
<path opacity="0.33" d="M126 80.4063C126 65.0957 104.229 52.6396 77.2569 52.5747C66.4679 58.8028 58.8257 65.3552 58.2477 65.3552L64.156 66.4581L66.3395 68.8585L91.7065 94.7438L119.706 94.095C123.688 90.0079 126 85.3368 126 80.4063Z" fill="url(#paint0_linear)"/>
<path opacity="0.33" d="M77.2569 52.5747C66.4679 58.8028 58.8257 65.3552 58.2477 65.3552L63.6422 66.3283L64.156 66.3932L66.3395 68.7936L91.7065 94.6789L119.706 94.0301L125.807 93.9004C125.936 93.1219 126 92.2785 126 91.4351V80.4063C126 65.0957 104.229 52.6396 77.2569 52.5747Z" fill="url(#paint1_linear)"/>
<path d="M98.9634 70.9993C98.9634 63.6684 98.6423 62.2412 95.7523 60.4895C88.0459 55.8185 70.1285 44.7896 64.6056 42.3244C63.3854 41.8054 62.5505 41.9351 61.9725 42.3893L56.3854 45.4384L60.6239 50.9528C60.6239 55.1048 60.6239 62.7602 60.6881 66.1337C60.7523 70.4155 62.0368 71.6481 63.4496 72.6212C68.7799 76.3191 80.2753 82.8716 87.9817 87.1533L91.8991 94.3545L97.4221 91.3702V91.3054C99.156 90.5917 98.8991 87.348 98.8991 87.348C98.8991 87.348 98.9634 81.7038 98.9634 70.9993Z" fill="#29C5D4"/>
<path d="M95.7523 60.4895C93.1193 58.8676 89.2019 56.4672 85.0918 54.002C85.2202 52.8991 85.0918 51.7313 84.7065 50.5636C83.4863 47.0603 80.2753 44.9843 77.5138 45.9574C77.3212 46.0223 77.1927 46.0872 77.0001 46.152L74.0459 47.3847C70.0001 45.114 66.5322 43.2326 64.6056 42.3244C63.3854 41.8054 62.5505 41.9351 61.9725 42.3893L56.3854 45.4384L60.6239 50.9528C60.6239 52.7045 60.6239 55.1048 60.6239 57.5701L93.3762 74.0485L98.9634 71.5183C98.9634 71.3237 98.9634 71.194 98.9634 70.9993C98.9634 63.6684 98.6423 62.2412 95.7523 60.4895Z" fill="#E5D723"/>
<path d="M93.4402 74.0486C93.4402 66.7176 93.1191 65.2904 90.2292 63.5387C87.532 61.852 83.5503 59.4516 79.3118 56.8565C79.5687 55.6239 79.4402 54.1967 78.9907 52.7694C77.7705 49.2661 74.5595 47.1901 71.798 48.1632C70.5779 48.6174 69.6788 49.5256 69.1008 50.7583C64.8623 48.293 61.1375 46.217 59.0824 45.3087C54.587 43.3624 55.1008 50.1095 55.1008 51.5368C55.1008 53.7425 55.1008 64.8362 55.2292 69.118C55.3577 73.3998 56.5779 74.6324 57.9907 75.6056C65.4402 80.7956 84.899 91.5001 89.3944 93.9005C93.8898 96.3008 93.5045 90.3972 93.5045 90.3972C93.5045 90.3972 93.376 84.6881 93.4402 74.0486Z" fill="#F8F423"/>
<path d="M55.0366 51.6016C55.0366 53.8073 55.0366 64.901 55.1651 69.1828C55.2935 73.4646 56.5137 74.6972 57.9265 75.6704C65.3761 80.8604 84.8348 91.5649 89.3302 93.9653C93.8256 96.3656 93.4403 90.462 93.4403 90.462C93.4403 90.462 93.4403 84.6881 93.4403 73.9836L55.0366 51.6016Z" fill="#48E4F3"/>
<path d="M75.1282 58.0828C76.6703 57.5445 77.3758 55.5158 76.7039 53.5516C76.0321 51.5873 74.2373 50.4314 72.6952 50.9697C71.1531 51.508 70.4476 53.5367 71.1195 55.5009C71.7913 57.4652 73.5861 58.6211 75.1282 58.0828Z" fill="#48E4F3"/>
<path d="M74.3027 66.7822V68.3392L88.8807 76.8379V75.2809L74.3027 66.7822Z" fill="white"/>
<path d="M74.3027 70.9341V72.4911L88.8807 80.9898V79.3679L74.3027 70.9341Z" fill="white"/>
<path d="M74.3027 75.0215V76.5785L88.8807 85.1421V83.5202L74.3027 75.0215Z" fill="white"/>
<path d="M74.3027 79.1733V80.7304L88.8807 89.229V87.6072L74.3027 79.1733Z" fill="white"/>
<path d="M68.9084 77.6166C69.5506 77.9409 69.7432 77.4219 69.7432 77.0327C69.7432 75.9298 69.679 73.724 69.679 72.9455C69.7432 70.7398 69.8075 69.9612 65.8258 67.3014C65.5689 67.1067 65.6974 66.7175 66.0185 66.6526C67.1102 66.1985 67.624 61.9816 64.5414 60.4246C61.202 58.6729 61.0093 63.7981 61.8442 65.0307C62.101 65.3551 61.9084 65.7443 61.5873 65.6795C59.1469 65.3551 57.8625 65.2253 57.9267 67.1067C57.9267 68.2745 57.9267 69.3125 57.9267 70.1559C57.9267 70.5451 57.7983 71.2588 58.5047 71.5831C58.7616 71.7129 68.2662 77.2922 68.9084 77.6166Z" fill="white"/>
</g>
<defs>
<filter id="filter0_d" x="0" y="0" width="166" height="166" filterUnits="userSpaceOnUse" color-interpolation-filters="sRGB">
<feFlood flood-opacity="0" result="BackgroundImageFix"/>
<feColorMatrix in="SourceAlpha" type="matrix" values="0 0 0 0 0 0 0 0 0 0 0 0 0 0 0 0 0 0 127 0"/>
<feOffset dx="4" dy="4"/>
<feGaussianBlur stdDeviation="5"/>
<feColorMatrix type="matrix" values="0 0 0 0 0 0 0 0 0 0 0 0 0 0 0 0 0 0 0.25 0"/>
<feBlend mode="normal" in2="BackgroundImageFix" result="effect1_dropShadow"/>
<feBlend mode="normal" in="SourceGraphic" in2="effect1_dropShadow" result="shape"/>
</filter>
<linearGradient id="paint0_linear" x1="58.2408" y1="73.6339" x2="126.004" y2="73.6339" gradientUnits="userSpaceOnUse">
<stop offset="0.3753"/>
<stop offset="1" stop-opacity="0"/>
</linearGradient>
<linearGradient id="paint1_linear" x1="58.2408" y1="73.6339" x2="126.004" y2="73.6339" gradientUnits="userSpaceOnUse">
<stop offset="0.1538"/>
<stop offset="1" stop-opacity="0"/>
</linearGradient>
<clipPath id="clip0">
<rect width="99" height="75.6448" fill="white" transform="translate(28 42)"/>
</clipPath>
</defs>
</svg>
