<svg width="166" height="166" viewBox="0 0 166 166" fill="none" xmlns="http://www.w3.org/2000/svg">
<g filter="url(#filter0_d)">
<circle cx="79" cy="79" r="73" fill="white"/>
</g>
<path d="M124.282 80.2917C116.287 71.2917 99.0524 65.0508 79 65.0508C58.9476 65.0508 41.713 71.2917 33.7182 80.2917H29V91.5252C29 106.175 51.4115 118 79 118C106.588 118 129 106.175 129 91.5252V80.2917H124.282Z" fill="#16A6B3"/>
<path d="M79 108.474C106.614 108.474 129 95.8566 129 80.2919C129 64.7271 106.614 52.1094 79 52.1094C51.3858 52.1094 29 64.7271 29 80.2919C29 95.8566 51.3858 108.474 79 108.474Z" fill="#29C5D4"/>
<path opacity="0.33" d="M78.9998 52.1094C73.0365 52.1094 67.3353 52.7006 62.0273 53.7517L71.7914 64.4597L74.0195 66.8904L80.7036 94.4159L129 92.5108C129 92.1824 129.065 91.8539 129.065 91.5911V80.2919C129 64.7225 106.588 52.1094 78.9998 52.1094Z" fill="url(#paint0_linear)"/>
<path d="M53.6397 31.6787C53.2465 32.467 53.6397 43.832 61.5689 52.832C65.1731 56.905 61.2412 49.0218 61.2412 49.0218C61.2412 49.0218 56.523 42.124 56.1298 35.9488C56.9162 36.3429 60.5204 38.3794 60.5204 38.3794L61.2412 35.9488C61.3068 36.0145 55.9988 32.9926 53.6397 31.6787Z" fill="#E5D723"/>
<path d="M91.7783 81.5401C89.2882 79.0437 84.701 77.4014 79.4586 77.4014C74.2161 77.4014 69.6289 79.0437 67.1388 81.5401L65.9592 81.7371L65.1729 83.1167V85.8101C65.1729 90.4744 71.5949 94.2189 79.5241 94.2189C87.4533 94.2189 93.8098 90.4744 93.8098 85.8101V83.1167L91.7783 82.3284V81.5401Z" fill="#C1B121"/>
<path d="M79.4587 91.1969C87.3846 91.1969 93.8099 87.4322 93.8099 82.7882C93.8099 78.1441 87.3846 74.3794 79.4587 74.3794C71.5327 74.3794 65.1074 78.1441 65.1074 82.7882C65.1074 87.4322 71.5327 91.1969 79.4587 91.1969Z" fill="#F3EB23"/>
<path d="M74.4785 71.4233V80.489C74.4785 82.1314 76.7066 83.3795 79.5244 83.3795C82.2767 83.3795 84.5703 82.0657 84.5703 80.489V71.4233H74.4785Z" fill="#C1B121"/>
<path d="M60.5859 39.0366C60.5859 39.0366 61.0447 46.3943 61.5689 52.8979C61.831 56.5111 62.1587 59.8614 62.4863 61.5038C63.7314 68.8614 69.9568 75.6936 79.5243 75.6936C89.0918 75.6936 95.3172 68.8614 96.5623 61.5038C97.3487 56.7738 98.4627 39.0366 98.4627 39.0366H60.5859Z" fill="#F3EB23"/>
<path d="M79.4588 50.073C89.882 50.073 98.3317 45.1318 98.3317 39.0365C98.3317 32.9412 89.882 28 79.4588 28C69.0356 28 60.5859 32.9412 60.5859 39.0365C60.5859 45.1318 69.0356 50.073 79.4588 50.073Z" fill="#F8F423"/>
<path d="M79.4588 46.7223C87.7829 46.7223 94.5309 43.3105 94.5309 39.1019C94.5309 34.8932 87.7829 31.4814 79.4588 31.4814C71.1347 31.4814 64.3867 34.8932 64.3867 39.1019C64.3867 43.3105 71.1347 46.7223 79.4588 46.7223Z" fill="#C1B121"/>
<path d="M61.3068 36.0145L53.6396 31.6787L55.1469 30.8247L62.2242 34.7663L61.3068 36.0145Z" fill="#F3EB23"/>
<path d="M104.426 58.9414L102.984 59.7954C102.984 59.7954 103.508 68.2699 98.397 70.8976C105.605 68.2699 104.426 58.9414 104.426 58.9414Z" fill="#C1B121"/>
<path d="M60.9792 45.4086C59.1443 43.0436 57.7682 36.8684 57.7682 36.8684C57.0473 36.4743 56.392 36.1458 56.1299 35.9487C56.5231 42.1239 61.2413 49.0217 61.2413 49.0217C61.1758 47.7735 61.1102 46.5911 60.9792 45.4086Z" fill="#C1B121"/>
<path d="M89.8781 48.2338C86.9292 49.3505 83.325 50.0732 79.4587 50.0732C73.692 50.0732 68.5806 48.5622 65.1074 46.1973C65.1074 51.9783 65.9593 72.8031 79.3931 74.971C95.055 77.533 91.3853 53.752 91.3853 53.752L89.8781 48.2338Z" fill="#E5D723"/>
<path d="M88.8296 48.5621C87.8467 68.6643 85.4876 71.1607 79 75.6278C79.1311 75.6278 79.3277 75.6278 79.4587 75.6278C85.5531 75.6278 90.3368 72.803 93.2857 68.9271C96.2346 62.0293 96.7588 48.8249 96.8244 43.3066C95.1861 45.5402 92.3683 47.3796 88.8296 48.5621Z" fill="#D6C129"/>
<path d="M89.0918 51.9122L90.6645 50.9268L104.426 58.9414L102.984 59.7954L89.0918 51.9122Z" fill="#F3EB23"/>
<path d="M89.0918 67.4815C100.56 71.7515 100.363 61.0435 100.363 61.0435L89.0918 54.8683V51.9121L102.984 59.7953C102.984 59.7953 104.033 76.2187 89.2229 70.5034C89.1573 69.2552 89.1573 69.2552 89.0918 67.4815Z" fill="#E5D723"/>
<path d="M100.363 61.0439C99.6421 71.2921 91.6474 66.6936 90.7955 66.7593C90.0091 67.0877 90.0747 67.022 89.1572 67.4819C100.56 71.752 100.363 61.0439 100.363 61.0439Z" fill="#C1B121"/>
<path d="M71.5952 66.102C71.5952 66.102 71.9229 64.3282 73.6267 63.8027C71.9884 62.883 71.8573 60.6494 71.8573 60.6494C71.8573 60.6494 71.5297 63.0144 69.6948 63.4742C71.4642 64.2626 71.5952 66.102 71.5952 66.102Z" fill="#FFFEFD"/>
<path d="M86.2739 45.9341C86.536 45.8684 86.7326 45.8027 86.9948 45.737L86.6671 45.0801L86.2739 45.9341Z" fill="#B12F11"/>
<path opacity="0.1" d="M79.4587 46.7228C78.9999 46.7228 78.4757 46.7228 78.017 46.6571L76.5098 50.0075V65.1826L80.7037 61.3724L85.7496 66.4965V49.9418C85.7496 49.9418 87.5189 46.1972 87.8466 45.4746C85.422 46.2629 82.6041 46.7228 79.4587 46.7228Z" fill="black"/>
<path d="M86.6674 45.0801C85.2257 45.4085 81.2283 45.737 79.459 45.737C78.6726 45.737 77.8863 45.6713 77.1654 45.6713L75.3306 49.81V64.9852L79.5245 61.175L84.5704 66.2991V49.6786C84.5049 49.6786 86.6019 45.2772 86.6674 45.0801Z" fill="#F86544"/>
<path d="M66.4182 47.051C66.4182 47.051 67.008 43.832 70.0224 42.978C67.0735 41.4013 66.9425 37.394 66.9425 37.394C66.9425 37.394 66.3527 41.5984 63.0762 42.3867C66.1561 43.832 66.4182 47.051 66.4182 47.051Z" fill="#FFFEFD"/>
<defs>
<filter id="filter0_d" x="0" y="0" width="166" height="166" filterUnits="userSpaceOnUse" color-interpolation-filters="sRGB">
<feFlood flood-opacity="0" result="BackgroundImageFix"/>
<feColorMatrix in="SourceAlpha" type="matrix" values="0 0 0 0 0 0 0 0 0 0 0 0 0 0 0 0 0 0 127 0"/>
<feOffset dx="4" dy="4"/>
<feGaussianBlur stdDeviation="5"/>
<feColorMatrix type="matrix" values="0 0 0 0 0 0 0 0 0 0 0 0 0 0 0 0 0 0 0.25 0"/>
<feBlend mode="normal" in2="BackgroundImageFix" result="effect1_dropShadow"/>
<feBlend mode="normal" in="SourceGraphic" in2="effect1_dropShadow" result="shape"/>
</filter>
<linearGradient id="paint0_linear" x1="62.0254" y1="73.2496" x2="129.003" y2="73.2496" gradientUnits="userSpaceOnUse">
<stop offset="0.2803"/>
<stop offset="1" stop-opacity="0"/>
</linearGradient>
</defs>
</svg>
